<svg width="72" height="72" viewBox="0 0 72 72" fill="none" xmlns="http://www.w3.org/2000/svg">
<path d="M36 63C39.5457 63 43.0567 62.3016 46.3325 60.9447C49.6082 59.5879 52.5847 57.5991 55.0919 55.0919C57.5991 52.5847 59.5879 49.6082 60.9447 46.3325C62.3016 43.0567 63 39.5457 63 36C63 32.4543 62.3016 28.9433 60.9447 25.6675C59.5879 22.3918 57.5991 19.4153 55.0919 16.9081C52.5847 14.4009 49.6082 12.4121 46.3325 11.0553C43.0567 9.69838 39.5457 9 36 9C28.8392 9 21.9716 11.8446 16.9081 16.9081C11.8446 21.9716 9 28.8392 9 36C9 43.1608 11.8446 50.0284 16.9081 55.0919C21.9716 60.1554 28.8392 63 36 63ZM36 67.5C27.6457 67.5 19.6335 64.1813 13.7261 58.2739C7.81874 52.3665 4.5 44.3543 4.5 36C4.5 27.6457 7.81874 19.6335 13.7261 13.7261C19.6335 7.81874 27.6457 4.5 36 4.5C44.3543 4.5 52.3665 7.81874 58.2739 13.7261C64.1813 19.6335 67.5 27.6457 67.5 36C67.5 44.3543 64.1813 52.3665 58.2739 58.2739C52.3665 64.1813 44.3543 67.5 36 67.5Z" fill="#0964D8"/>
<path d="M52.407 25.407C52.8294 24.9845 53.4025 24.7472 54 24.7472C54.5974 24.7472 55.1705 24.9845 55.5929 25.407C56.0154 25.8295 56.2528 26.4025 56.2528 27C56.2528 27.5975 56.0154 28.1705 55.5929 28.593L35.343 48.843C35.134 49.0526 34.8857 49.2188 34.6124 49.3322C34.339 49.4457 34.046 49.5041 33.75 49.5041C33.4541 49.5041 33.161 49.4457 32.8877 49.3322C32.6143 49.2188 32.366 49.0526 32.157 48.843L20.907 37.593C20.6978 37.3838 20.5319 37.1355 20.4187 36.8622C20.3055 36.5888 20.2472 36.2959 20.2472 36C20.2472 35.7042 20.3055 35.4112 20.4187 35.1379C20.5319 34.8646 20.6978 34.6162 20.907 34.407C21.1162 34.1978 21.3646 34.0319 21.6379 33.9187C21.9112 33.8055 22.2042 33.7472 22.5 33.7472C22.7959 33.7472 23.0888 33.8055 23.3622 33.9187C23.6355 34.0319 23.8838 34.1978 24.093 34.407L33.75 44.0685L52.407 25.407Z" fill="#0964D8"/>
</svg>
