<svg width="72" height="72" viewBox="0 0 72 72" fill="none" xmlns="http://www.w3.org/2000/svg">
<path d="M36 58.5C41.9674 58.5 47.6903 56.1295 51.9099 51.9099C56.1295 47.6903 58.5 41.9674 58.5 36C58.5 30.0326 56.1295 24.3097 51.9099 20.0901C47.6903 15.8705 41.9674 13.5 36 13.5C30.0326 13.5 24.3097 15.8705 20.0901 20.0901C15.8705 24.3097 13.5 30.0326 13.5 36C13.5 41.9674 15.8705 47.6903 20.0901 51.9099C24.3097 56.1295 30.0326 58.5 36 58.5ZM36 63C32.4543 63 28.9433 62.3016 25.6675 60.9447C22.3918 59.5879 19.4153 57.5991 16.9081 55.0919C14.4009 52.5847 12.4121 49.6082 11.0553 46.3325C9.69838 43.0567 9 39.5457 9 36C9 32.4543 9.69838 28.9433 11.0553 25.6675C12.4121 22.3918 14.4009 19.4153 16.9081 16.9081C19.4153 14.4009 22.3918 12.4121 25.6675 11.0553C28.9433 9.69838 32.4543 9 36 9C43.1608 9 50.0284 11.8446 55.0919 16.9081C60.1553 21.9716 63 28.8392 63 36C63 43.1608 60.1553 50.0284 55.0919 55.0919C50.0284 60.1554 43.1608 63 36 63Z" fill="#0964D8"/>
<path d="M20.5515 57.978L24.4485 60.228L21.0735 66.0735C20.9268 66.3314 20.7306 66.5578 20.4961 66.7396C20.2616 66.9214 19.9934 67.055 19.7071 67.1328C19.4207 67.2105 19.1218 67.2309 18.8275 67.1926C18.5333 67.1544 18.2495 67.0583 17.9925 66.9099C17.7355 66.7616 17.5105 66.5638 17.3302 66.3281C17.15 66.0924 17.0181 65.8234 16.9423 65.5365C16.8664 65.2496 16.8481 64.9506 16.8883 64.6566C16.9285 64.3626 17.0264 64.0795 17.1765 63.8235L20.5515 57.978ZM51.4485 57.978L47.5515 60.228L50.9265 66.0735C51.0732 66.3314 51.2694 66.5578 51.5039 66.7396C51.7384 66.9214 52.0066 67.055 52.293 67.1328C52.5793 67.2105 52.8782 67.2309 53.1725 67.1926C53.4667 67.1544 53.7505 67.0583 54.0075 66.9099C54.2645 66.7616 54.4896 66.5638 54.6698 66.3281C54.8501 66.0924 54.9819 65.8234 55.0577 65.5365C55.1336 65.2496 55.1519 64.9506 55.1117 64.6566C55.0715 64.3626 54.9736 64.0795 54.8235 63.8235L51.4485 57.978ZM36 36H47.25C47.8467 36 48.419 36.2371 48.841 36.659C49.263 37.081 49.5 37.6533 49.5 38.25C49.5 38.8467 49.263 39.419 48.841 39.841C48.419 40.2629 47.8467 40.5 47.25 40.5H33.75C33.1533 40.5 32.581 40.2629 32.159 39.841C31.7371 39.419 31.5 38.8467 31.5 38.25V22.5C31.5 21.9033 31.7371 21.331 32.159 20.909C32.581 20.4871 33.1533 20.25 33.75 20.25C34.3467 20.25 34.919 20.4871 35.341 20.909C35.763 21.331 36 21.9033 36 22.5V36ZM6.363 21.9555C4.92708 19.7917 4.28397 17.1978 4.54278 14.6138C4.8016 12.0298 5.94641 9.61493 7.78297 7.7789C9.61953 5.94287 12.0347 4.79876 14.6188 4.54069C17.2028 4.28262 19.7966 4.92648 21.96 6.36303L18.666 9.65702C17.4064 9.05546 15.9913 8.85918 14.6156 9.09522C13.2398 9.33127 11.971 9.98802 10.984 10.975C9.997 11.9621 9.34025 13.2308 9.1042 14.6066C8.86816 15.9823 9.06444 17.3974 9.666 18.657L6.3675 21.9555H6.363ZM65.0925 21.9555C66.5265 19.792 67.1682 17.1993 66.909 14.6167C66.6497 12.0342 65.5055 9.6207 63.6702 7.78538C61.8348 5.95006 59.4214 4.80581 56.8388 4.54658C54.2562 4.28735 51.6635 4.92909 49.5 6.36303L52.794 9.65702C54.0536 9.05546 55.4687 8.85918 56.8445 9.09522C58.2202 9.33127 59.489 9.98802 60.476 10.975C61.463 11.9621 62.1198 13.2308 62.3558 14.6066C62.5919 15.9823 62.3956 17.3974 61.794 18.657L65.0925 21.9555Z" fill="#0964D8"/>
</svg>
