<svg width="258" height="72" viewBox="0 0 258 72" fill="none" xmlns="http://www.w3.org/2000/svg">
<path d="M44.4785 17.9943V51.9456C44.4785 53.2738 43.8989 54.5475 42.8671 55.4867C41.8354 56.4258 40.436 56.9534 38.9769 56.9534C37.5178 56.9534 36.1185 56.4258 35.0868 55.4867C34.055 54.5475 33.4754 53.2738 33.4754 51.9456V30.7261C30.0239 32.329 26.2072 33.1721 22.3325 33.1875C18.3775 33.1598 14.4892 32.2568 11.0031 30.5563V51.7759C11.0031 53.104 10.4234 54.3778 9.3917 55.3169C8.35996 56.2561 6.96063 56.7837 5.50153 56.7837C4.04243 56.7837 2.6431 56.2561 1.61136 55.3169C0.579624 54.3778 0 53.104 0 51.7759V17.8246C0 16.4964 0.579624 15.2227 1.61136 14.2835C2.6431 13.3444 4.04243 12.8168 5.50153 12.8168C6.96063 12.8168 8.35996 13.3444 9.3917 14.2835C10.4234 15.2227 11.0031 16.4964 11.0031 17.8246V23.0022C14.2579 25.1903 18.193 26.3794 22.2392 26.3973C26.2757 26.3659 30.2019 25.1944 33.4754 23.0446V17.9943C33.4754 16.6662 34.055 15.3924 35.0868 14.4533C36.1185 13.5141 37.5178 12.9865 38.9769 12.9865C40.436 12.9865 41.8354 13.5141 42.8671 14.4533C43.8989 15.3924 44.4785 16.6662 44.4785 17.9943Z" fill="#0000E4"/>
<path d="M11.0031 5.00781C11.0031 2.24207 8.53994 0 5.50153 0C2.46312 0 0 2.24207 0 5.00781V5.89904C0 8.66478 2.46312 10.9069 5.50153 10.9069C8.53994 10.9069 11.0031 8.66478 11.0031 5.89904V5.00781Z" fill="#0000E4"/>
<path d="M44.4786 5.00781C44.4786 2.24207 42.0155 0 38.9771 0C35.9387 0 33.4756 2.24207 33.4756 5.00781V5.89904C33.4756 8.66478 35.9387 10.9069 38.9771 10.9069C42.0155 10.9069 44.4786 8.66478 44.4786 5.89904V5.00781Z" fill="#0000E4"/>
<path d="M55.7 67C54.4333 67 53.2 66.7833 52 66.35C50.8 65.95 49.7667 65.35 48.9 64.55L50.95 60.95C51.6167 61.5833 52.35 62.0667 53.15 62.4C53.95 62.7333 54.8 62.9 55.7 62.9C56.8667 62.9 57.8333 62.6 58.6 62C59.3667 61.4 60.0833 60.3333 60.75 58.8L62.4 55.15L62.9 54.55L73.3 30.5H78L65.15 59.65C64.3833 61.5167 63.5167 62.9833 62.55 64.05C61.6167 65.1167 60.5833 65.8667 59.45 66.3C58.3167 66.7667 57.0667 67 55.7 67ZM62 57.85L49.9 30.5H54.9L65.2 54.1L62 57.85ZM84.9797 57V30.5H89.5797V37.7L89.1297 35.9C89.863 34.0667 91.0964 32.6667 92.8297 31.7C94.563 30.7333 96.6964 30.25 99.2297 30.25V34.9C99.0297 34.8667 98.8297 34.85 98.6297 34.85C98.463 34.85 98.2964 34.85 98.1297 34.85C95.563 34.85 93.5297 35.6167 92.0297 37.15C90.5297 38.6833 89.7797 40.9 89.7797 43.8V57H84.9797ZM119.202 57.3C116.368 57.3 113.868 56.7167 111.702 55.55C109.568 54.3833 107.902 52.7833 106.702 50.75C105.535 48.7167 104.952 46.3833 104.952 43.75C104.952 41.1167 105.518 38.7833 106.652 36.75C107.818 34.7167 109.402 33.1333 111.402 32C113.435 30.8333 115.718 30.25 118.252 30.25C120.818 30.25 123.085 30.8167 125.052 31.95C127.018 33.0833 128.552 34.6833 129.652 36.75C130.785 38.7833 131.352 41.1667 131.352 43.9C131.352 44.1 131.335 44.3333 131.302 44.6C131.302 44.8667 131.285 45.1167 131.252 45.35H108.702V41.9H128.752L126.802 43.1C126.835 41.4 126.485 39.8833 125.752 38.55C125.018 37.2167 124.002 36.1833 122.702 35.45C121.435 34.6833 119.952 34.3 118.252 34.3C116.585 34.3 115.102 34.6833 113.802 35.45C112.502 36.1833 111.485 37.2333 110.752 38.6C110.018 39.9333 109.652 41.4667 109.652 43.2V44C109.652 45.7667 110.052 47.35 110.852 48.75C111.685 50.1167 112.835 51.1833 114.302 51.95C115.768 52.7167 117.452 53.1 119.352 53.1C120.918 53.1 122.335 52.8333 123.602 52.3C124.902 51.7667 126.035 50.9667 127.002 49.9L129.652 53C128.452 54.4 126.952 55.4667 125.152 56.2C123.385 56.9333 121.402 57.3 119.202 57.3ZM173.667 30.25C175.8 30.25 177.683 30.6667 179.317 31.5C180.95 32.3333 182.217 33.6 183.117 35.3C184.05 37 184.517 39.15 184.517 41.75V57H179.717V42.3C179.717 39.7333 179.117 37.8 177.917 36.5C176.717 35.2 175.033 34.55 172.867 34.55C171.267 34.55 169.867 34.8833 168.667 35.55C167.467 36.2167 166.533 37.2 165.867 38.5C165.233 39.8 164.917 41.4167 164.917 43.35V57H160.117V42.3C160.117 39.7333 159.517 37.8 158.317 36.5C157.15 35.2 155.467 34.55 153.267 34.55C151.7 34.55 150.317 34.8833 149.117 35.55C147.917 36.2167 146.983 37.2 146.317 38.5C145.65 39.8 145.317 41.4167 145.317 43.35V57H140.517V30.5H145.117V37.55L144.367 35.75C145.2 34.0167 146.483 32.6667 148.217 31.7C149.95 30.7333 151.967 30.25 154.267 30.25C156.8 30.25 158.983 30.8833 160.817 32.15C162.65 33.3833 163.85 35.2667 164.417 37.8L162.467 37C163.267 34.9667 164.667 33.3333 166.667 32.1C168.667 30.8667 171 30.25 173.667 30.25ZM212.299 57V51.4L212.049 50.35V40.8C212.049 38.7667 211.449 37.2 210.249 36.1C209.082 34.9667 207.315 34.4 204.949 34.4C203.382 34.4 201.849 34.6667 200.349 35.2C198.849 35.7 197.582 36.3833 196.549 37.25L194.549 33.65C195.915 32.55 197.549 31.7167 199.449 31.15C201.382 30.55 203.399 30.25 205.499 30.25C209.132 30.25 211.932 31.1333 213.899 32.9C215.865 34.6667 216.849 37.3667 216.849 41V57H212.299ZM203.599 57.3C201.632 57.3 199.899 56.9667 198.399 56.3C196.932 55.6333 195.799 54.7167 194.999 53.55C194.199 52.35 193.799 51 193.799 49.5C193.799 48.0667 194.132 46.7667 194.799 45.6C195.499 44.4333 196.615 43.5 198.149 42.8C199.715 42.1 201.815 41.75 204.449 41.75H212.849V45.2H204.649C202.249 45.2 200.632 45.6 199.799 46.4C198.965 47.2 198.549 48.1667 198.549 49.3C198.549 50.6 199.065 51.65 200.099 52.45C201.132 53.2167 202.565 53.6 204.399 53.6C206.199 53.6 207.765 53.2 209.099 52.4C210.465 51.6 211.449 50.4333 212.049 48.9L212.999 52.2C212.365 53.7667 211.249 55.0167 209.649 55.95C208.049 56.85 206.032 57.3 203.599 57.3ZM242.382 30.25C244.548 30.25 246.448 30.6667 248.082 31.5C249.748 32.3333 251.048 33.6 251.982 35.3C252.915 37 253.382 39.15 253.382 41.75V57H248.582V42.3C248.582 39.7333 247.948 37.8 246.682 36.5C245.448 35.2 243.698 34.55 241.432 34.55C239.732 34.55 238.248 34.8833 236.982 35.55C235.715 36.2167 234.732 37.2 234.032 38.5C233.365 39.8 233.032 41.4167 233.032 43.35V57H228.232V30.5H232.832V37.65L232.082 35.75C232.948 34.0167 234.282 32.6667 236.082 31.7C237.882 30.7333 239.982 30.25 242.382 30.25Z" fill="#0000E4"/>
<path d="M52 66.35L52.3396 65.4094L52.328 65.4052L52.3162 65.4013L52 66.35ZM48.9 64.55L48.031 64.0552L47.6378 64.7458L48.2217 65.2848L48.9 64.55ZM50.95 60.95L51.6387 60.225L50.7129 59.3455L50.081 60.4552L50.95 60.95ZM53.15 62.4L53.5346 61.4769L53.5346 61.4769L53.15 62.4ZM58.6 62L57.9837 61.2125L57.9837 61.2125L58.6 62ZM60.75 58.8L59.8388 58.3881L59.8358 58.3947L59.8329 58.4013L60.75 58.8ZM62.4 55.15L61.6318 54.5098L61.5448 54.6142L61.4888 54.7381L62.4 55.15ZM62.9 54.55L63.6682 55.1902L63.7606 55.0793L63.8179 54.9469L62.9 54.55ZM73.3 30.5V29.5H72.6429L72.3821 30.1031L73.3 30.5ZM78 30.5L78.915 30.9034L79.5337 29.5H78V30.5ZM65.15 59.65L64.235 59.2466L64.2298 59.2583L64.225 59.2701L65.15 59.65ZM62.55 64.05L61.809 63.3785L61.8032 63.3849L61.7974 63.3915L62.55 64.05ZM59.45 66.3L59.0929 65.3659L59.081 65.3705L59.0693 65.3753L59.45 66.3ZM62 57.85L61.0855 58.2546L61.7287 59.7085L62.7607 58.4991L62 57.85ZM49.9 30.5V29.5H48.3641L48.9855 30.9046L49.9 30.5ZM54.9 30.5L55.8165 30.1L55.5547 29.5H54.9V30.5ZM65.2 54.1L65.9607 54.7491L66.3667 54.2733L66.1165 53.7L65.2 54.1ZM55.7 66C54.55 66 53.4315 65.8037 52.3396 65.4094L51.6604 67.2906C52.9685 67.7629 54.3167 68 55.7 68V66ZM52.3162 65.4013C51.2408 65.0428 50.3334 64.5122 49.5783 63.8152L48.2217 65.2848C49.2 66.1878 50.3592 66.8572 51.6838 67.2987L52.3162 65.4013ZM49.769 65.0448L51.819 61.4448L50.081 60.4552L48.031 64.0552L49.769 65.0448ZM50.2613 61.675C51.0109 62.3872 51.846 62.94 52.7654 63.3231L53.5346 61.4769C52.854 61.1933 52.2224 60.7795 51.6387 60.225L50.2613 61.675ZM52.7654 63.3231C53.6919 63.7091 54.6732 63.9 55.7 63.9V61.9C54.9268 61.9 54.2081 61.7575 53.5346 61.4769L52.7654 63.3231ZM55.7 63.9C57.0442 63.9 58.2407 63.551 59.2163 62.7875L57.9837 61.2125C57.4259 61.649 56.6891 61.9 55.7 61.9V63.9ZM59.2163 62.7875C60.1768 62.0358 60.9755 60.7893 61.6671 59.1987L59.8329 58.4013C59.1911 59.8774 58.5565 60.7642 57.9837 61.2125L59.2163 62.7875ZM61.6612 59.2119L63.3112 55.5619L61.4888 54.7381L59.8388 58.3881L61.6612 59.2119ZM63.1682 55.7902L63.6682 55.1902L62.1318 53.9098L61.6318 54.5098L63.1682 55.7902ZM63.8179 54.9469L74.2179 30.8969L72.3821 30.1031L61.9821 54.1531L63.8179 54.9469ZM73.3 31.5H78V29.5H73.3V31.5ZM77.085 30.0966L64.235 59.2466L66.065 60.0534L78.915 30.9034L77.085 30.0966ZM64.225 59.2701C63.486 61.0693 62.6735 62.4245 61.809 63.3785L63.291 64.7215C64.3598 63.5421 65.2807 61.964 66.075 60.0299L64.225 59.2701ZM61.7974 63.3915C60.9534 64.3561 60.0501 64.9999 59.0929 65.3659L59.8071 67.2341C61.1165 66.7334 62.28 65.8772 63.3026 64.7085L61.7974 63.3915ZM59.0693 65.3753C58.0699 65.7868 56.9511 66 55.7 66V68C57.1823 68 58.5635 67.7465 59.8308 67.2247L59.0693 65.3753ZM62.9145 57.4454L50.8145 30.0954L48.9855 30.9046L61.0855 58.2546L62.9145 57.4454ZM49.9 31.5H54.9V29.5H49.9V31.5ZM53.9835 30.9L64.2835 54.5L66.1165 53.7L55.8165 30.1L53.9835 30.9ZM64.4393 53.4509L61.2393 57.2009L62.7607 58.4991L65.9607 54.7491L64.4393 53.4509ZM84.9797 57H83.9797V58H84.9797V57ZM84.9797 30.5V29.5H83.9797V30.5H84.9797ZM89.5797 30.5H90.5797V29.5H89.5797V30.5ZM89.5797 37.7L88.6095 37.9425L90.5797 37.7H89.5797ZM89.1297 35.9L88.2012 35.5286L88.0811 35.8288L88.1595 36.1425L89.1297 35.9ZM92.8297 31.7L92.3426 30.8266L92.3426 30.8266L92.8297 31.7ZM99.2297 30.25H100.23V29.25H99.2297V30.25ZM99.2297 34.9L99.0653 35.8864L100.23 36.0805V34.9H99.2297ZM89.7797 57V58H90.7797V57H89.7797ZM85.9797 57V30.5H83.9797V57H85.9797ZM84.9797 31.5H89.5797V29.5H84.9797V31.5ZM88.5797 30.5V37.7H90.5797V30.5H88.5797ZM90.5498 37.4575L90.0998 35.6575L88.1595 36.1425L88.6095 37.9425L90.5498 37.4575ZM90.0582 36.2714C90.7058 34.6522 91.7827 33.4289 93.3168 32.5734L92.3426 30.8266C90.41 31.9044 89.0202 33.4811 88.2012 35.5286L90.0582 36.2714ZM93.3168 32.5734C94.8655 31.7096 96.8207 31.25 99.2297 31.25V29.25C96.572 29.25 94.2605 29.757 92.3426 30.8266L93.3168 32.5734ZM98.2297 30.25V34.9H100.23V30.25H98.2297ZM99.3941 33.9136C99.1405 33.8713 98.8855 33.85 98.6297 33.85V35.85C98.7739 35.85 98.9189 35.862 99.0653 35.8864L99.3941 33.9136ZM98.6297 33.85C98.6294 33.85 98.629 33.85 98.6287 33.85C98.6284 33.85 98.6281 33.85 98.6277 33.85C98.6274 33.85 98.6271 33.85 98.6268 33.85C98.6264 33.85 98.6261 33.85 98.6258 33.85C98.6255 33.85 98.6251 33.85 98.6248 33.85C98.6245 33.85 98.6242 33.85 98.6238 33.85C98.6235 33.85 98.6232 33.85 98.6229 33.85C98.6225 33.85 98.6222 33.85 98.6219 33.85C98.6216 33.85 98.6212 33.85 98.6209 33.85C98.6206 33.85 98.6202 33.85 98.6199 33.85C98.6196 33.85 98.6193 33.85 98.6189 33.85C98.6186 33.85 98.6183 33.85 98.618 33.85C98.6176 33.85 98.6173 33.85 98.617 33.85C98.6167 33.85 98.6163 33.85 98.616 33.85C98.6157 33.85 98.6154 33.85 98.615 33.85C98.6147 33.85 98.6144 33.85 98.6141 33.85C98.6137 33.85 98.6134 33.85 98.6131 33.85C98.6128 33.85 98.6124 33.85 98.6121 33.85C98.6118 33.85 98.6115 33.85 98.6111 33.85C98.6108 33.85 98.6105 33.85 98.6102 33.85C98.6098 33.85 98.6095 33.85 98.6092 33.85C98.6089 33.85 98.6085 33.85 98.6082 33.85C98.6079 33.85 98.6076 33.85 98.6072 33.85C98.6069 33.85 98.6066 33.85 98.6063 33.85C98.6059 33.85 98.6056 33.85 98.6053 33.85C98.6049 33.85 98.6046 33.85 98.6043 33.85C98.604 33.85 98.6036 33.85 98.6033 33.85C98.603 33.85 98.6027 33.85 98.6023 33.85C98.602 33.85 98.6017 33.85 98.6014 33.85C98.601 33.85 98.6007 33.85 98.6004 33.85C98.6001 33.85 98.5997 33.85 98.5994 33.85C98.5991 33.85 98.5988 33.85 98.5984 33.85C98.5981 33.85 98.5978 33.85 98.5975 33.85C98.5971 33.85 98.5968 33.85 98.5965 33.85C98.5962 33.85 98.5958 33.85 98.5955 33.85C98.5952 33.85 98.5949 33.85 98.5945 33.85C98.5942 33.85 98.5939 33.85 98.5936 33.85C98.5932 33.85 98.5929 33.85 98.5926 33.85C98.5923 33.85 98.5919 33.85 98.5916 33.85C98.5913 33.85 98.591 33.85 98.5906 33.85C98.5903 33.85 98.59 33.85 98.5896 33.85C98.5893 33.85 98.589 33.85 98.5887 33.85C98.5883 33.85 98.588 33.85 98.5877 33.85C98.5874 33.85 98.587 33.85 98.5867 33.85C98.5864 33.85 98.5861 33.85 98.5857 33.85C98.5854 33.85 98.5851 33.85 98.5848 33.85C98.5844 33.85 98.5841 33.85 98.5838 33.85C98.5835 33.85 98.5831 33.85 98.5828 33.85C98.5825 33.85 98.5822 33.85 98.5818 33.85C98.5815 33.85 98.5812 33.85 98.5809 33.85C98.5805 33.85 98.5802 33.85 98.5799 33.85C98.5796 33.85 98.5792 33.85 98.5789 33.85C98.5786 33.85 98.5783 33.85 98.5779 33.85C98.5776 33.85 98.5773 33.85 98.577 33.85C98.5766 33.85 98.5763 33.85 98.576 33.85C98.5757 33.85 98.5753 33.85 98.575 33.85C98.5747 33.85 98.5744 33.85 98.574 33.85C98.5737 33.85 98.5734 33.85 98.573 33.85C98.5727 33.85 98.5724 33.85 98.5721 33.85C98.5717 33.85 98.5714 33.85 98.5711 33.85C98.5708 33.85 98.5704 33.85 98.5701 33.85C98.5698 33.85 98.5695 33.85 98.5691 33.85C98.5688 33.85 98.5685 33.85 98.5682 33.85C98.5678 33.85 98.5675 33.85 98.5672 33.85C98.5669 33.85 98.5665 33.85 98.5662 33.85C98.5659 33.85 98.5656 33.85 98.5652 33.85C98.5649 33.85 98.5646 33.85 98.5643 33.85C98.5639 33.85 98.5636 33.85 98.5633 33.85C98.563 33.85 98.5626 33.85 98.5623 33.85C98.562 33.85 98.5617 33.85 98.5613 33.85C98.561 33.85 98.5607 33.85 98.5604 33.85C98.56 33.85 98.5597 33.85 98.5594 33.85C98.5591 33.85 98.5587 33.85 98.5584 33.85C98.5581 33.85 98.5577 33.85 98.5574 33.85C98.5571 33.85 98.5568 33.85 98.5564 33.85C98.5561 33.85 98.5558 33.85 98.5555 33.85C98.5551 33.85 98.5548 33.85 98.5545 33.85C98.5542 33.85 98.5538 33.85 98.5535 33.85C98.5532 33.85 98.5529 33.85 98.5525 33.85C98.5522 33.85 98.5519 33.85 98.5516 33.85C98.5512 33.85 98.5509 33.85 98.5506 33.85C98.5503 33.85 98.5499 33.85 98.5496 33.85C98.5493 33.85 98.549 33.85 98.5486 33.85C98.5483 33.85 98.548 33.85 98.5477 33.85C98.5473 33.85 98.547 33.85 98.5467 33.85C98.5464 33.85 98.546 33.85 98.5457 33.85C98.5454 33.85 98.5451 33.85 98.5447 33.85C98.5444 33.85 98.5441 33.85 98.5438 33.85C98.5434 33.85 98.5431 33.85 98.5428 33.85C98.5424 33.85 98.5421 33.85 98.5418 33.85C98.5415 33.85 98.5411 33.85 98.5408 33.85C98.5405 33.85 98.5402 33.85 98.5398 33.85C98.5395 33.85 98.5392 33.85 98.5389 33.85C98.5385 33.85 98.5382 33.85 98.5379 33.85C98.5376 33.85 98.5372 33.85 98.5369 33.85C98.5366 33.85 98.5363 33.85 98.5359 33.85C98.5356 33.85 98.5353 33.85 98.535 33.85C98.5346 33.85 98.5343 33.85 98.534 33.85C98.5337 33.85 98.5333 33.85 98.533 33.85C98.5327 33.85 98.5324 33.85 98.532 33.85C98.5317 33.85 98.5314 33.85 98.5311 33.85C98.5307 33.85 98.5304 33.85 98.5301 33.85C98.5298 33.85 98.5294 33.85 98.5291 33.85C98.5288 33.85 98.5285 33.85 98.5281 33.85C98.5278 33.85 98.5275 33.85 98.5271 33.85C98.5268 33.85 98.5265 33.85 98.5262 33.85C98.5258 33.85 98.5255 33.85 98.5252 33.85C98.5249 33.85 98.5245 33.85 98.5242 33.85C98.5239 33.85 98.5236 33.85 98.5232 33.85C98.5229 33.85 98.5226 33.85 98.5223 33.85C98.5219 33.85 98.5216 33.85 98.5213 33.85C98.521 33.85 98.5206 33.85 98.5203 33.85C98.52 33.85 98.5197 33.85 98.5193 33.85C98.519 33.85 98.5187 33.85 98.5184 33.85C98.518 33.85 98.5177 33.85 98.5174 33.85C98.5171 33.85 98.5167 33.85 98.5164 33.85C98.5161 33.85 98.5158 33.85 98.5154 33.85C98.5151 33.85 98.5148 33.85 98.5145 33.85C98.5141 33.85 98.5138 33.85 98.5135 33.85C98.5132 33.85 98.5128 33.85 98.5125 33.85C98.5122 33.85 98.5119 33.85 98.5115 33.85C98.5112 33.85 98.5109 33.85 98.5105 33.85C98.5102 33.85 98.5099 33.85 98.5096 33.85C98.5092 33.85 98.5089 33.85 98.5086 33.85C98.5083 33.85 98.5079 33.85 98.5076 33.85C98.5073 33.85 98.507 33.85 98.5066 33.85C98.5063 33.85 98.506 33.85 98.5057 33.85C98.5053 33.85 98.505 33.85 98.5047 33.85C98.5044 33.85 98.504 33.85 98.5037 33.85C98.5034 33.85 98.5031 33.85 98.5027 33.85C98.5024 33.85 98.5021 33.85 98.5018 33.85C98.5014 33.85 98.5011 33.85 98.5008 33.85C98.5005 33.85 98.5001 33.85 98.4998 33.85C98.4995 33.85 98.4992 33.85 98.4988 33.85C98.4985 33.85 98.4982 33.85 98.4979 33.85C98.4975 33.85 98.4972 33.85 98.4969 33.85C98.4966 33.85 98.4962 33.85 98.4959 33.85C98.4956 33.85 98.4952 33.85 98.4949 33.85C98.4946 33.85 98.4943 33.85 98.4939 33.85C98.4936 33.85 98.4933 33.85 98.493 33.85C98.4926 33.85 98.4923 33.85 98.492 33.85C98.4917 33.85 98.4913 33.85 98.491 33.85C98.4907 33.85 98.4904 33.85 98.49 33.85C98.4897 33.85 98.4894 33.85 98.4891 33.85C98.4887 33.85 98.4884 33.85 98.4881 33.85C98.4878 33.85 98.4874 33.85 98.4871 33.85C98.4868 33.85 98.4865 33.85 98.4861 33.85C98.4858 33.85 98.4855 33.85 98.4852 33.85C98.4848 33.85 98.4845 33.85 98.4842 33.85C98.4839 33.85 98.4835 33.85 98.4832 33.85C98.4829 33.85 98.4826 33.85 98.4822 33.85C98.4819 33.85 98.4816 33.85 98.4813 33.85C98.4809 33.85 98.4806 33.85 98.4803 33.85C98.4799 33.85 98.4796 33.85 98.4793 33.85C98.479 33.85 98.4786 33.85 98.4783 33.85C98.478 33.85 98.4777 33.85 98.4773 33.85C98.477 33.85 98.4767 33.85 98.4764 33.85C98.476 33.85 98.4757 33.85 98.4754 33.85C98.4751 33.85 98.4747 33.85 98.4744 33.85C98.4741 33.85 98.4738 33.85 98.4734 33.85C98.4731 33.85 98.4728 33.85 98.4725 33.85C98.4721 33.85 98.4718 33.85 98.4715 33.85C98.4712 33.85 98.4708 33.85 98.4705 33.85C98.4702 33.85 98.4699 33.85 98.4695 33.85C98.4692 33.85 98.4689 33.85 98.4686 33.85C98.4682 33.85 98.4679 33.85 98.4676 33.85C98.4673 33.85 98.4669 33.85 98.4666 33.85C98.4663 33.85 98.466 33.85 98.4656 33.85C98.4653 33.85 98.465 33.85 98.4646 33.85C98.4643 33.85 98.464 33.85 98.4637 33.85C98.4633 33.85 98.463 33.85 98.4627 33.85C98.4624 33.85 98.462 33.85 98.4617 33.85C98.4614 33.85 98.4611 33.85 98.4607 33.85C98.4604 33.85 98.4601 33.85 98.4598 33.85C98.4594 33.85 98.4591 33.85 98.4588 33.85C98.4585 33.85 98.4581 33.85 98.4578 33.85C98.4575 33.85 98.4572 33.85 98.4568 33.85C98.4565 33.85 98.4562 33.85 98.4559 33.85C98.4555 33.85 98.4552 33.85 98.4549 33.85C98.4546 33.85 98.4542 33.85 98.4539 33.85C98.4536 33.85 98.4533 33.85 98.4529 33.85C98.4526 33.85 98.4523 33.85 98.452 33.85C98.4516 33.85 98.4513 33.85 98.451 33.85C98.4507 33.85 98.4503 33.85 98.45 33.85C98.4497 33.85 98.4494 33.85 98.449 33.85C98.4487 33.85 98.4484 33.85 98.448 33.85C98.4477 33.85 98.4474 33.85 98.4471 33.85C98.4467 33.85 98.4464 33.85 98.4461 33.85C98.4458 33.85 98.4454 33.85 98.4451 33.85C98.4448 33.85 98.4445 33.85 98.4441 33.85C98.4438 33.85 98.4435 33.85 98.4432 33.85C98.4428 33.85 98.4425 33.85 98.4422 33.85C98.4419 33.85 98.4415 33.85 98.4412 33.85C98.4409 33.85 98.4406 33.85 98.4402 33.85C98.4399 33.85 98.4396 33.85 98.4393 33.85C98.4389 33.85 98.4386 33.85 98.4383 33.85C98.438 33.85 98.4376 33.85 98.4373 33.85C98.437 33.85 98.4367 33.85 98.4363 33.85C98.436 33.85 98.4357 33.85 98.4354 33.85C98.435 33.85 98.4347 33.85 98.4344 33.85C98.4341 33.85 98.4337 33.85 98.4334 33.85C98.4331 33.85 98.4327 33.85 98.4324 33.85C98.4321 33.85 98.4318 33.85 98.4314 33.85C98.4311 33.85 98.4308 33.85 98.4305 33.85C98.4301 33.85 98.4298 33.85 98.4295 33.85C98.4292 33.85 98.4288 33.85 98.4285 33.85C98.4282 33.85 98.4279 33.85 98.4275 33.85C98.4272 33.85 98.4269 33.85 98.4266 33.85C98.4262 33.85 98.4259 33.85 98.4256 33.85C98.4253 33.85 98.4249 33.85 98.4246 33.85C98.4243 33.85 98.424 33.85 98.4236 33.85C98.4233 33.85 98.423 33.85 98.4227 33.85C98.4223 33.85 98.422 33.85 98.4217 33.85C98.4214 33.85 98.421 33.85 98.4207 33.85C98.4204 33.85 98.4201 33.85 98.4197 33.85C98.4194 33.85 98.4191 33.85 98.4188 33.85C98.4184 33.85 98.4181 33.85 98.4178 33.85C98.4174 33.85 98.4171 33.85 98.4168 33.85C98.4165 33.85 98.4161 33.85 98.4158 33.85C98.4155 33.85 98.4152 33.85 98.4148 33.85C98.4145 33.85 98.4142 33.85 98.4139 33.85C98.4135 33.85 98.4132 33.85 98.4129 33.85C98.4126 33.85 98.4122 33.85 98.4119 33.85C98.4116 33.85 98.4113 33.85 98.4109 33.85C98.4106 33.85 98.4103 33.85 98.41 33.85C98.4096 33.85 98.4093 33.85 98.409 33.85C98.4087 33.85 98.4083 33.85 98.408 33.85C98.4077 33.85 98.4074 33.85 98.407 33.85C98.4067 33.85 98.4064 33.85 98.4061 33.85C98.4057 33.85 98.4054 33.85 98.4051 33.85C98.4048 33.85 98.4044 33.85 98.4041 33.85C98.4038 33.85 98.4035 33.85 98.4031 33.85C98.4028 33.85 98.4025 33.85 98.4021 33.85C98.4018 33.85 98.4015 33.85 98.4012 33.85C98.4008 33.85 98.4005 33.85 98.4002 33.85C98.3999 33.85 98.3995 33.85 98.3992 33.85C98.3989 33.85 98.3986 33.85 98.3982 33.85C98.3979 33.85 98.3976 33.85 98.3973 33.85C98.3969 33.85 98.3966 33.85 98.3963 33.85C98.396 33.85 98.3956 33.85 98.3953 33.85C98.395 33.85 98.3947 33.85 98.3943 33.85C98.394 33.85 98.3937 33.85 98.3934 33.85C98.393 33.85 98.3927 33.85 98.3924 33.85C98.3921 33.85 98.3917 33.85 98.3914 33.85C98.3911 33.85 98.3908 33.85 98.3904 33.85C98.3901 33.85 98.3898 33.85 98.3895 33.85C98.3891 33.85 98.3888 33.85 98.3885 33.85C98.3882 33.85 98.3878 33.85 98.3875 33.85C98.3872 33.85 98.3868 33.85 98.3865 33.85C98.3862 33.85 98.3859 33.85 98.3855 33.85C98.3852 33.85 98.3849 33.85 98.3846 33.85C98.3842 33.85 98.3839 33.85 98.3836 33.85C98.3833 33.85 98.3829 33.85 98.3826 33.85C98.3823 33.85 98.382 33.85 98.3816 33.85C98.3813 33.85 98.381 33.85 98.3807 33.85C98.3803 33.85 98.38 33.85 98.3797 33.85C98.3794 33.85 98.379 33.85 98.3787 33.85C98.3784 33.85 98.3781 33.85 98.3777 33.85C98.3774 33.85 98.3771 33.85 98.3768 33.85C98.3764 33.85 98.3761 33.85 98.3758 33.85C98.3755 33.85 98.3751 33.85 98.3748 33.85C98.3745 33.85 98.3742 33.85 98.3738 33.85C98.3735 33.85 98.3732 33.85 98.3729 33.85C98.3725 33.85 98.3722 33.85 98.3719 33.85C98.3716 33.85 98.3712 33.85 98.3709 33.85C98.3706 33.85 98.3702 33.85 98.3699 33.85C98.3696 33.85 98.3693 33.85 98.3689 33.85C98.3686 33.85 98.3683 33.85 98.368 33.85C98.3676 33.85 98.3673 33.85 98.367 33.85C98.3667 33.85 98.3663 33.85 98.366 33.85C98.3657 33.85 98.3654 33.85 98.365 33.85C98.3647 33.85 98.3644 33.85 98.3641 33.85C98.3637 33.85 98.3634 33.85 98.3631 33.85C98.3628 33.85 98.3624 33.85 98.3621 33.85C98.3618 33.85 98.3615 33.85 98.3611 33.85C98.3608 33.85 98.3605 33.85 98.3602 33.85C98.3598 33.85 98.3595 33.85 98.3592 33.85C98.3589 33.85 98.3585 33.85 98.3582 33.85C98.3579 33.85 98.3576 33.85 98.3572 33.85C98.3569 33.85 98.3566 33.85 98.3563 33.85C98.3559 33.85 98.3556 33.85 98.3553 33.85C98.3549 33.85 98.3546 33.85 98.3543 33.85C98.354 33.85 98.3536 33.85 98.3533 33.85C98.353 33.85 98.3527 33.85 98.3523 33.85C98.352 33.85 98.3517 33.85 98.3514 33.85C98.351 33.85 98.3507 33.85 98.3504 33.85C98.3501 33.85 98.3497 33.85 98.3494 33.85C98.3491 33.85 98.3488 33.85 98.3484 33.85C98.3481 33.85 98.3478 33.85 98.3475 33.85C98.3471 33.85 98.3468 33.85 98.3465 33.85C98.3462 33.85 98.3458 33.85 98.3455 33.85C98.3452 33.85 98.3449 33.85 98.3445 33.85C98.3442 33.85 98.3439 33.85 98.3436 33.85C98.3432 33.85 98.3429 33.85 98.3426 33.85C98.3423 33.85 98.3419 33.85 98.3416 33.85C98.3413 33.85 98.341 33.85 98.3406 33.85C98.3403 33.85 98.34 33.85 98.3396 33.85C98.3393 33.85 98.339 33.85 98.3387 33.85C98.3383 33.85 98.338 33.85 98.3377 33.85C98.3374 33.85 98.337 33.85 98.3367 33.85C98.3364 33.85 98.3361 33.85 98.3357 33.85C98.3354 33.85 98.3351 33.85 98.3348 33.85C98.3344 33.85 98.3341 33.85 98.3338 33.85C98.3335 33.85 98.3331 33.85 98.3328 33.85C98.3325 33.85 98.3322 33.85 98.3318 33.85C98.3315 33.85 98.3312 33.85 98.3309 33.85C98.3305 33.85 98.3302 33.85 98.3299 33.85C98.3296 33.85 98.3292 33.85 98.3289 33.85C98.3286 33.85 98.3283 33.85 98.3279 33.85C98.3276 33.85 98.3273 33.85 98.327 33.85C98.3266 33.85 98.3263 33.85 98.326 33.85C98.3257 33.85 98.3253 33.85 98.325 33.85C98.3247 33.85 98.3243 33.85 98.324 33.85C98.3237 33.85 98.3234 33.85 98.323 33.85C98.3227 33.85 98.3224 33.85 98.3221 33.85C98.3217 33.85 98.3214 33.85 98.3211 33.85C98.3208 33.85 98.3204 33.85 98.3201 33.85C98.3198 33.85 98.3195 33.85 98.3191 33.85C98.3188 33.85 98.3185 33.85 98.3182 33.85C98.3178 33.85 98.3175 33.85 98.3172 33.85C98.3169 33.85 98.3165 33.85 98.3162 33.85C98.3159 33.85 98.3156 33.85 98.3152 33.85C98.3149 33.85 98.3146 33.85 98.3143 33.85C98.3139 33.85 98.3136 33.85 98.3133 33.85C98.313 33.85 98.3126 33.85 98.3123 33.85C98.312 33.85 98.3117 33.85 98.3113 33.85C98.311 33.85 98.3107 33.85 98.3104 33.85C98.31 33.85 98.3097 33.85 98.3094 33.85C98.3091 33.85 98.3087 33.85 98.3084 33.85C98.3081 33.85 98.3077 33.85 98.3074 33.85C98.3071 33.85 98.3068 33.85 98.3064 33.85C98.3061 33.85 98.3058 33.85 98.3055 33.85C98.3051 33.85 98.3048 33.85 98.3045 33.85C98.3042 33.85 98.3038 33.85 98.3035 33.85C98.3032 33.85 98.3029 33.85 98.3025 33.85C98.3022 33.85 98.3019 33.85 98.3016 33.85C98.3012 33.85 98.3009 33.85 98.3006 33.85C98.3003 33.85 98.2999 33.85 98.2996 33.85C98.2993 33.85 98.299 33.85 98.2986 33.85C98.2983 33.85 98.298 33.85 98.2977 33.85C98.2973 33.85 98.297 33.85 98.2967 33.85C98.2964 33.85 98.296 33.85 98.2957 33.85C98.2954 33.85 98.2951 33.85 98.2947 33.85C98.2944 33.85 98.2941 33.85 98.2938 33.85C98.2934 33.85 98.2931 33.85 98.2928 33.85C98.2924 33.85 98.2921 33.85 98.2918 33.85C98.2915 33.85 98.2911 33.85 98.2908 33.85C98.2905 33.85 98.2902 33.85 98.2898 33.85C98.2895 33.85 98.2892 33.85 98.2889 33.85C98.2885 33.85 98.2882 33.85 98.2879 33.85C98.2876 33.85 98.2872 33.85 98.2869 33.85C98.2866 33.85 98.2863 33.85 98.2859 33.85C98.2856 33.85 98.2853 33.85 98.285 33.85C98.2846 33.85 98.2843 33.85 98.284 33.85C98.2837 33.85 98.2833 33.85 98.283 33.85C98.2827 33.85 98.2824 33.85 98.282 33.85C98.2817 33.85 98.2814 33.85 98.2811 33.85C98.2807 33.85 98.2804 33.85 98.2801 33.85C98.2798 33.85 98.2794 33.85 98.2791 33.85C98.2788 33.85 98.2785 33.85 98.2781 33.85C98.2778 33.85 98.2775 33.85 98.2771 33.85C98.2768 33.85 98.2765 33.85 98.2762 33.85C98.2758 33.85 98.2755 33.85 98.2752 33.85C98.2749 33.85 98.2745 33.85 98.2742 33.85C98.2739 33.85 98.2736 33.85 98.2732 33.85C98.2729 33.85 98.2726 33.85 98.2723 33.85C98.2719 33.85 98.2716 33.85 98.2713 33.85C98.271 33.85 98.2706 33.85 98.2703 33.85C98.27 33.85 98.2697 33.85 98.2693 33.85C98.269 33.85 98.2687 33.85 98.2684 33.85C98.268 33.85 98.2677 33.85 98.2674 33.85C98.2671 33.85 98.2667 33.85 98.2664 33.85C98.2661 33.85 98.2658 33.85 98.2654 33.85C98.2651 33.85 98.2648 33.85 98.2645 33.85C98.2641 33.85 98.2638 33.85 98.2635 33.85C98.2632 33.85 98.2628 33.85 98.2625 33.85C98.2622 33.85 98.2618 33.85 98.2615 33.85C98.2612 33.85 98.2609 33.85 98.2605 33.85C98.2602 33.85 98.2599 33.85 98.2596 33.85C98.2592 33.85 98.2589 33.85 98.2586 33.85C98.2583 33.85 98.2579 33.85 98.2576 33.85C98.2573 33.85 98.257 33.85 98.2566 33.85C98.2563 33.85 98.256 33.85 98.2557 33.85C98.2553 33.85 98.255 33.85 98.2547 33.85C98.2544 33.85 98.254 33.85 98.2537 33.85C98.2534 33.85 98.2531 33.85 98.2527 33.85C98.2524 33.85 98.2521 33.85 98.2518 33.85C98.2514 33.85 98.2511 33.85 98.2508 33.85C98.2505 33.85 98.2501 33.85 98.2498 33.85C98.2495 33.85 98.2492 33.85 98.2488 33.85C98.2485 33.85 98.2482 33.85 98.2479 33.85C98.2475 33.85 98.2472 33.85 98.2469 33.85C98.2466 33.85 98.2462 33.85 98.2459 33.85C98.2456 33.85 98.2452 33.85 98.2449 33.85C98.2446 33.85 98.2443 33.85 98.2439 33.85C98.2436 33.85 98.2433 33.85 98.243 33.85C98.2426 33.85 98.2423 33.85 98.242 33.85C98.2417 33.85 98.2413 33.85 98.241 33.85C98.2407 33.85 98.2404 33.85 98.24 33.85C98.2397 33.85 98.2394 33.85 98.2391 33.85C98.2387 33.85 98.2384 33.85 98.2381 33.85C98.2378 33.85 98.2374 33.85 98.2371 33.85C98.2368 33.85 98.2365 33.85 98.2361 33.85C98.2358 33.85 98.2355 33.85 98.2352 33.85C98.2348 33.85 98.2345 33.85 98.2342 33.85C98.2339 33.85 98.2335 33.85 98.2332 33.85C98.2329 33.85 98.2326 33.85 98.2322 33.85C98.2319 33.85 98.2316 33.85 98.2313 33.85C98.2309 33.85 98.2306 33.85 98.2303 33.85C98.2299 33.85 98.2296 33.85 98.2293 33.85C98.229 33.85 98.2286 33.85 98.2283 33.85C98.228 33.85 98.2277 33.85 98.2273 33.85C98.227 33.85 98.2267 33.85 98.2264 33.85C98.226 33.85 98.2257 33.85 98.2254 33.85C98.2251 33.85 98.2247 33.85 98.2244 33.85C98.2241 33.85 98.2238 33.85 98.2234 33.85C98.2231 33.85 98.2228 33.85 98.2225 33.85C98.2221 33.85 98.2218 33.85 98.2215 33.85C98.2212 33.85 98.2208 33.85 98.2205 33.85C98.2202 33.85 98.2199 33.85 98.2195 33.85C98.2192 33.85 98.2189 33.85 98.2186 33.85C98.2182 33.85 98.2179 33.85 98.2176 33.85C98.2173 33.85 98.2169 33.85 98.2166 33.85C98.2163 33.85 98.216 33.85 98.2156 33.85C98.2153 33.85 98.215 33.85 98.2146 33.85C98.2143 33.85 98.214 33.85 98.2137 33.85C98.2133 33.85 98.213 33.85 98.2127 33.85C98.2124 33.85 98.212 33.85 98.2117 33.85C98.2114 33.85 98.2111 33.85 98.2107 33.85C98.2104 33.85 98.2101 33.85 98.2098 33.85C98.2094 33.85 98.2091 33.85 98.2088 33.85C98.2085 33.85 98.2081 33.85 98.2078 33.85C98.2075 33.85 98.2072 33.85 98.2068 33.85C98.2065 33.85 98.2062 33.85 98.2059 33.85C98.2055 33.85 98.2052 33.85 98.2049 33.85C98.2046 33.85 98.2042 33.85 98.2039 33.85C98.2036 33.85 98.2033 33.85 98.2029 33.85C98.2026 33.85 98.2023 33.85 98.202 33.85C98.2016 33.85 98.2013 33.85 98.201 33.85C98.2007 33.85 98.2003 33.85 98.2 33.85C98.1997 33.85 98.1993 33.85 98.199 33.85C98.1987 33.85 98.1984 33.85 98.198 33.85C98.1977 33.85 98.1974 33.85 98.1971 33.85C98.1967 33.85 98.1964 33.85 98.1961 33.85C98.1958 33.85 98.1954 33.85 98.1951 33.85C98.1948 33.85 98.1945 33.85 98.1941 33.85C98.1938 33.85 98.1935 33.85 98.1932 33.85C98.1928 33.85 98.1925 33.85 98.1922 33.85C98.1919 33.85 98.1915 33.85 98.1912 33.85C98.1909 33.85 98.1906 33.85 98.1902 33.85C98.1899 33.85 98.1896 33.85 98.1893 33.85C98.1889 33.85 98.1886 33.85 98.1883 33.85C98.188 33.85 98.1876 33.85 98.1873 33.85C98.187 33.85 98.1867 33.85 98.1863 33.85C98.186 33.85 98.1857 33.85 98.1854 33.85C98.185 33.85 98.1847 33.85 98.1844 33.85C98.184 33.85 98.1837 33.85 98.1834 33.85C98.1831 33.85 98.1827 33.85 98.1824 33.85C98.1821 33.85 98.1818 33.85 98.1814 33.85C98.1811 33.85 98.1808 33.85 98.1805 33.85C98.1801 33.85 98.1798 33.85 98.1795 33.85C98.1792 33.85 98.1788 33.85 98.1785 33.85C98.1782 33.85 98.1779 33.85 98.1775 33.85C98.1772 33.85 98.1769 33.85 98.1766 33.85C98.1762 33.85 98.1759 33.85 98.1756 33.85C98.1753 33.85 98.1749 33.85 98.1746 33.85C98.1743 33.85 98.174 33.85 98.1736 33.85C98.1733 33.85 98.173 33.85 98.1727 33.85C98.1723 33.85 98.172 33.85 98.1717 33.85C98.1714 33.85 98.171 33.85 98.1707 33.85C98.1704 33.85 98.1701 33.85 98.1697 33.85C98.1694 33.85 98.1691 33.85 98.1688 33.85C98.1684 33.85 98.1681 33.85 98.1678 33.85C98.1674 33.85 98.1671 33.85 98.1668 33.85C98.1665 33.85 98.1661 33.85 98.1658 33.85C98.1655 33.85 98.1652 33.85 98.1648 33.85C98.1645 33.85 98.1642 33.85 98.1639 33.85C98.1635 33.85 98.1632 33.85 98.1629 33.85C98.1626 33.85 98.1622 33.85 98.1619 33.85C98.1616 33.85 98.1613 33.85 98.1609 33.85C98.1606 33.85 98.1603 33.85 98.16 33.85C98.1596 33.85 98.1593 33.85 98.159 33.85C98.1587 33.85 98.1583 33.85 98.158 33.85C98.1577 33.85 98.1574 33.85 98.157 33.85C98.1567 33.85 98.1564 33.85 98.1561 33.85C98.1557 33.85 98.1554 33.85 98.1551 33.85C98.1548 33.85 98.1544 33.85 98.1541 33.85C98.1538 33.85 98.1535 33.85 98.1531 33.85C98.1528 33.85 98.1525 33.85 98.1521 33.85C98.1518 33.85 98.1515 33.85 98.1512 33.85C98.1508 33.85 98.1505 33.85 98.1502 33.85C98.1499 33.85 98.1495 33.85 98.1492 33.85C98.1489 33.85 98.1486 33.85 98.1482 33.85C98.1479 33.85 98.1476 33.85 98.1473 33.85C98.1469 33.85 98.1466 33.85 98.1463 33.85C98.146 33.85 98.1456 33.85 98.1453 33.85C98.145 33.85 98.1447 33.85 98.1443 33.85C98.144 33.85 98.1437 33.85 98.1434 33.85C98.143 33.85 98.1427 33.85 98.1424 33.85C98.1421 33.85 98.1417 33.85 98.1414 33.85C98.1411 33.85 98.1408 33.85 98.1404 33.85C98.1401 33.85 98.1398 33.85 98.1395 33.85C98.1391 33.85 98.1388 33.85 98.1385 33.85C98.1382 33.85 98.1378 33.85 98.1375 33.85C98.1372 33.85 98.1368 33.85 98.1365 33.85C98.1362 33.85 98.1359 33.85 98.1355 33.85C98.1352 33.85 98.1349 33.85 98.1346 33.85C98.1342 33.85 98.1339 33.85 98.1336 33.85C98.1333 33.85 98.1329 33.85 98.1326 33.85C98.1323 33.85 98.132 33.85 98.1316 33.85C98.1313 33.85 98.131 33.85 98.1307 33.85C98.1303 33.85 98.13 33.85 98.1297 33.85V35.85C98.13 35.85 98.1303 35.85 98.1307 35.85C98.131 35.85 98.1313 35.85 98.1316 35.85C98.132 35.85 98.1323 35.85 98.1326 35.85C98.1329 35.85 98.1333 35.85 98.1336 35.85C98.1339 35.85 98.1342 35.85 98.1346 35.85C98.1349 35.85 98.1352 35.85 98.1355 35.85C98.1359 35.85 98.1362 35.85 98.1365 35.85C98.1368 35.85 98.1372 35.85 98.1375 35.85C98.1378 35.85 98.1382 35.85 98.1385 35.85C98.1388 35.85 98.1391 35.85 98.1395 35.85C98.1398 35.85 98.1401 35.85 98.1404 35.85C98.1408 35.85 98.1411 35.85 98.1414 35.85C98.1417 35.85 98.1421 35.85 98.1424 35.85C98.1427 35.85 98.143 35.85 98.1434 35.85C98.1437 35.85 98.144 35.85 98.1443 35.85C98.1447 35.85 98.145 35.85 98.1453 35.85C98.1456 35.85 98.146 35.85 98.1463 35.85C98.1466 35.85 98.1469 35.85 98.1473 35.85C98.1476 35.85 98.1479 35.85 98.1482 35.85C98.1486 35.85 98.1489 35.85 98.1492 35.85C98.1495 35.85 98.1499 35.85 98.1502 35.85C98.1505 35.85 98.1508 35.85 98.1512 35.85C98.1515 35.85 98.1518 35.85 98.1521 35.85C98.1525 35.85 98.1528 35.85 98.1531 35.85C98.1535 35.85 98.1538 35.85 98.1541 35.85C98.1544 35.85 98.1548 35.85 98.1551 35.85C98.1554 35.85 98.1557 35.85 98.1561 35.85C98.1564 35.85 98.1567 35.85 98.157 35.85C98.1574 35.85 98.1577 35.85 98.158 35.85C98.1583 35.85 98.1587 35.85 98.159 35.85C98.1593 35.85 98.1596 35.85 98.16 35.85C98.1603 35.85 98.1606 35.85 98.1609 35.85C98.1613 35.85 98.1616 35.85 98.1619 35.85C98.1622 35.85 98.1626 35.85 98.1629 35.85C98.1632 35.85 98.1635 35.85 98.1639 35.85C98.1642 35.85 98.1645 35.85 98.1648 35.85C98.1652 35.85 98.1655 35.85 98.1658 35.85C98.1661 35.85 98.1665 35.85 98.1668 35.85C98.1671 35.85 98.1674 35.85 98.1678 35.85C98.1681 35.85 98.1684 35.85 98.1688 35.85C98.1691 35.85 98.1694 35.85 98.1697 35.85C98.1701 35.85 98.1704 35.85 98.1707 35.85C98.171 35.85 98.1714 35.85 98.1717 35.85C98.172 35.85 98.1723 35.85 98.1727 35.85C98.173 35.85 98.1733 35.85 98.1736 35.85C98.174 35.85 98.1743 35.85 98.1746 35.85C98.1749 35.85 98.1753 35.85 98.1756 35.85C98.1759 35.85 98.1762 35.85 98.1766 35.85C98.1769 35.85 98.1772 35.85 98.1775 35.85C98.1779 35.85 98.1782 35.85 98.1785 35.85C98.1788 35.85 98.1792 35.85 98.1795 35.85C98.1798 35.85 98.1801 35.85 98.1805 35.85C98.1808 35.85 98.1811 35.85 98.1814 35.85C98.1818 35.85 98.1821 35.85 98.1824 35.85C98.1827 35.85 98.1831 35.85 98.1834 35.85C98.1837 35.85 98.184 35.85 98.1844 35.85C98.1847 35.85 98.185 35.85 98.1854 35.85C98.1857 35.85 98.186 35.85 98.1863 35.85C98.1867 35.85 98.187 35.85 98.1873 35.85C98.1876 35.85 98.188 35.85 98.1883 35.85C98.1886 35.85 98.1889 35.85 98.1893 35.85C98.1896 35.85 98.1899 35.85 98.1902 35.85C98.1906 35.85 98.1909 35.85 98.1912 35.85C98.1915 35.85 98.1919 35.85 98.1922 35.85C98.1925 35.85 98.1928 35.85 98.1932 35.85C98.1935 35.85 98.1938 35.85 98.1941 35.85C98.1945 35.85 98.1948 35.85 98.1951 35.85C98.1954 35.85 98.1958 35.85 98.1961 35.85C98.1964 35.85 98.1967 35.85 98.1971 35.85C98.1974 35.85 98.1977 35.85 98.198 35.85C98.1984 35.85 98.1987 35.85 98.199 35.85C98.1993 35.85 98.1997 35.85 98.2 35.85C98.2003 35.85 98.2007 35.85 98.201 35.85C98.2013 35.85 98.2016 35.85 98.202 35.85C98.2023 35.85 98.2026 35.85 98.2029 35.85C98.2033 35.85 98.2036 35.85 98.2039 35.85C98.2042 35.85 98.2046 35.85 98.2049 35.85C98.2052 35.85 98.2055 35.85 98.2059 35.85C98.2062 35.85 98.2065 35.85 98.2068 35.85C98.2072 35.85 98.2075 35.85 98.2078 35.85C98.2081 35.85 98.2085 35.85 98.2088 35.85C98.2091 35.85 98.2094 35.85 98.2098 35.85C98.2101 35.85 98.2104 35.85 98.2107 35.85C98.2111 35.85 98.2114 35.85 98.2117 35.85C98.212 35.85 98.2124 35.85 98.2127 35.85C98.213 35.85 98.2133 35.85 98.2137 35.85C98.214 35.85 98.2143 35.85 98.2146 35.85C98.215 35.85 98.2153 35.85 98.2156 35.85C98.216 35.85 98.2163 35.85 98.2166 35.85C98.2169 35.85 98.2173 35.85 98.2176 35.85C98.2179 35.85 98.2182 35.85 98.2186 35.85C98.2189 35.85 98.2192 35.85 98.2195 35.85C98.2199 35.85 98.2202 35.85 98.2205 35.85C98.2208 35.85 98.2212 35.85 98.2215 35.85C98.2218 35.85 98.2221 35.85 98.2225 35.85C98.2228 35.85 98.2231 35.85 98.2234 35.85C98.2238 35.85 98.2241 35.85 98.2244 35.85C98.2247 35.85 98.2251 35.85 98.2254 35.85C98.2257 35.85 98.226 35.85 98.2264 35.85C98.2267 35.85 98.227 35.85 98.2273 35.85C98.2277 35.85 98.228 35.85 98.2283 35.85C98.2286 35.85 98.229 35.85 98.2293 35.85C98.2296 35.85 98.2299 35.85 98.2303 35.85C98.2306 35.85 98.2309 35.85 98.2313 35.85C98.2316 35.85 98.2319 35.85 98.2322 35.85C98.2326 35.85 98.2329 35.85 98.2332 35.85C98.2335 35.85 98.2339 35.85 98.2342 35.85C98.2345 35.85 98.2348 35.85 98.2352 35.85C98.2355 35.85 98.2358 35.85 98.2361 35.85C98.2365 35.85 98.2368 35.85 98.2371 35.85C98.2374 35.85 98.2378 35.85 98.2381 35.85C98.2384 35.85 98.2387 35.85 98.2391 35.85C98.2394 35.85 98.2397 35.85 98.24 35.85C98.2404 35.85 98.2407 35.85 98.241 35.85C98.2413 35.85 98.2417 35.85 98.242 35.85C98.2423 35.85 98.2426 35.85 98.243 35.85C98.2433 35.85 98.2436 35.85 98.2439 35.85C98.2443 35.85 98.2446 35.85 98.2449 35.85C98.2452 35.85 98.2456 35.85 98.2459 35.85C98.2462 35.85 98.2466 35.85 98.2469 35.85C98.2472 35.85 98.2475 35.85 98.2479 35.85C98.2482 35.85 98.2485 35.85 98.2488 35.85C98.2492 35.85 98.2495 35.85 98.2498 35.85C98.2501 35.85 98.2505 35.85 98.2508 35.85C98.2511 35.85 98.2514 35.85 98.2518 35.85C98.2521 35.85 98.2524 35.85 98.2527 35.85C98.2531 35.85 98.2534 35.85 98.2537 35.85C98.254 35.85 98.2544 35.85 98.2547 35.85C98.255 35.85 98.2553 35.85 98.2557 35.85C98.256 35.85 98.2563 35.85 98.2566 35.85C98.257 35.85 98.2573 35.85 98.2576 35.85C98.2579 35.85 98.2583 35.85 98.2586 35.85C98.2589 35.85 98.2592 35.85 98.2596 35.85C98.2599 35.85 98.2602 35.85 98.2605 35.85C98.2609 35.85 98.2612 35.85 98.2615 35.85C98.2618 35.85 98.2622 35.85 98.2625 35.85C98.2628 35.85 98.2632 35.85 98.2635 35.85C98.2638 35.85 98.2641 35.85 98.2645 35.85C98.2648 35.85 98.2651 35.85 98.2654 35.85C98.2658 35.85 98.2661 35.85 98.2664 35.85C98.2667 35.85 98.2671 35.85 98.2674 35.85C98.2677 35.85 98.268 35.85 98.2684 35.85C98.2687 35.85 98.269 35.85 98.2693 35.85C98.2697 35.85 98.27 35.85 98.2703 35.85C98.2706 35.85 98.271 35.85 98.2713 35.85C98.2716 35.85 98.2719 35.85 98.2723 35.85C98.2726 35.85 98.2729 35.85 98.2732 35.85C98.2736 35.85 98.2739 35.85 98.2742 35.85C98.2745 35.85 98.2749 35.85 98.2752 35.85C98.2755 35.85 98.2758 35.85 98.2762 35.85C98.2765 35.85 98.2768 35.85 98.2771 35.85C98.2775 35.85 98.2778 35.85 98.2781 35.85C98.2785 35.85 98.2788 35.85 98.2791 35.85C98.2794 35.85 98.2798 35.85 98.2801 35.85C98.2804 35.85 98.2807 35.85 98.2811 35.85C98.2814 35.85 98.2817 35.85 98.282 35.85C98.2824 35.85 98.2827 35.85 98.283 35.85C98.2833 35.85 98.2837 35.85 98.284 35.85C98.2843 35.85 98.2846 35.85 98.285 35.85C98.2853 35.85 98.2856 35.85 98.2859 35.85C98.2863 35.85 98.2866 35.85 98.2869 35.85C98.2872 35.85 98.2876 35.85 98.2879 35.85C98.2882 35.85 98.2885 35.85 98.2889 35.85C98.2892 35.85 98.2895 35.85 98.2898 35.85C98.2902 35.85 98.2905 35.85 98.2908 35.85C98.2911 35.85 98.2915 35.85 98.2918 35.85C98.2921 35.85 98.2924 35.85 98.2928 35.85C98.2931 35.85 98.2934 35.85 98.2938 35.85C98.2941 35.85 98.2944 35.85 98.2947 35.85C98.2951 35.85 98.2954 35.85 98.2957 35.85C98.296 35.85 98.2964 35.85 98.2967 35.85C98.297 35.85 98.2973 35.85 98.2977 35.85C98.298 35.85 98.2983 35.85 98.2986 35.85C98.299 35.85 98.2993 35.85 98.2996 35.85C98.2999 35.85 98.3003 35.85 98.3006 35.85C98.3009 35.85 98.3012 35.85 98.3016 35.85C98.3019 35.85 98.3022 35.85 98.3025 35.85C98.3029 35.85 98.3032 35.85 98.3035 35.85C98.3038 35.85 98.3042 35.85 98.3045 35.85C98.3048 35.85 98.3051 35.85 98.3055 35.85C98.3058 35.85 98.3061 35.85 98.3064 35.85C98.3068 35.85 98.3071 35.85 98.3074 35.85C98.3077 35.85 98.3081 35.85 98.3084 35.85C98.3087 35.85 98.3091 35.85 98.3094 35.85C98.3097 35.85 98.31 35.85 98.3104 35.85C98.3107 35.85 98.311 35.85 98.3113 35.85C98.3117 35.85 98.312 35.85 98.3123 35.85C98.3126 35.85 98.313 35.85 98.3133 35.85C98.3136 35.85 98.3139 35.85 98.3143 35.85C98.3146 35.85 98.3149 35.85 98.3152 35.85C98.3156 35.85 98.3159 35.85 98.3162 35.85C98.3165 35.85 98.3169 35.85 98.3172 35.85C98.3175 35.85 98.3178 35.85 98.3182 35.85C98.3185 35.85 98.3188 35.85 98.3191 35.85C98.3195 35.85 98.3198 35.85 98.3201 35.85C98.3204 35.85 98.3208 35.85 98.3211 35.85C98.3214 35.85 98.3217 35.85 98.3221 35.85C98.3224 35.85 98.3227 35.85 98.323 35.85C98.3234 35.85 98.3237 35.85 98.324 35.85C98.3243 35.85 98.3247 35.85 98.325 35.85C98.3253 35.85 98.3257 35.85 98.326 35.85C98.3263 35.85 98.3266 35.85 98.327 35.85C98.3273 35.85 98.3276 35.85 98.3279 35.85C98.3283 35.85 98.3286 35.85 98.3289 35.85C98.3292 35.85 98.3296 35.85 98.3299 35.85C98.3302 35.85 98.3305 35.85 98.3309 35.85C98.3312 35.85 98.3315 35.85 98.3318 35.85C98.3322 35.85 98.3325 35.85 98.3328 35.85C98.3331 35.85 98.3335 35.85 98.3338 35.85C98.3341 35.85 98.3344 35.85 98.3348 35.85C98.3351 35.85 98.3354 35.85 98.3357 35.85C98.3361 35.85 98.3364 35.85 98.3367 35.85C98.337 35.85 98.3374 35.85 98.3377 35.85C98.338 35.85 98.3383 35.85 98.3387 35.85C98.339 35.85 98.3393 35.85 98.3396 35.85C98.34 35.85 98.3403 35.85 98.3406 35.85C98.341 35.85 98.3413 35.85 98.3416 35.85C98.3419 35.85 98.3423 35.85 98.3426 35.85C98.3429 35.85 98.3432 35.85 98.3436 35.85C98.3439 35.85 98.3442 35.85 98.3445 35.85C98.3449 35.85 98.3452 35.85 98.3455 35.85C98.3458 35.85 98.3462 35.85 98.3465 35.85C98.3468 35.85 98.3471 35.85 98.3475 35.85C98.3478 35.85 98.3481 35.85 98.3484 35.85C98.3488 35.85 98.3491 35.85 98.3494 35.85C98.3497 35.85 98.3501 35.85 98.3504 35.85C98.3507 35.85 98.351 35.85 98.3514 35.85C98.3517 35.85 98.352 35.85 98.3523 35.85C98.3527 35.85 98.353 35.85 98.3533 35.85C98.3536 35.85 98.354 35.85 98.3543 35.85C98.3546 35.85 98.3549 35.85 98.3553 35.85C98.3556 35.85 98.3559 35.85 98.3563 35.85C98.3566 35.85 98.3569 35.85 98.3572 35.85C98.3576 35.85 98.3579 35.85 98.3582 35.85C98.3585 35.85 98.3589 35.85 98.3592 35.85C98.3595 35.85 98.3598 35.85 98.3602 35.85C98.3605 35.85 98.3608 35.85 98.3611 35.85C98.3615 35.85 98.3618 35.85 98.3621 35.85C98.3624 35.85 98.3628 35.85 98.3631 35.85C98.3634 35.85 98.3637 35.85 98.3641 35.85C98.3644 35.85 98.3647 35.85 98.365 35.85C98.3654 35.85 98.3657 35.85 98.366 35.85C98.3663 35.85 98.3667 35.85 98.367 35.85C98.3673 35.85 98.3676 35.85 98.368 35.85C98.3683 35.85 98.3686 35.85 98.3689 35.85C98.3693 35.85 98.3696 35.85 98.3699 35.85C98.3702 35.85 98.3706 35.85 98.3709 35.85C98.3712 35.85 98.3716 35.85 98.3719 35.85C98.3722 35.85 98.3725 35.85 98.3729 35.85C98.3732 35.85 98.3735 35.85 98.3738 35.85C98.3742 35.85 98.3745 35.85 98.3748 35.85C98.3751 35.85 98.3755 35.85 98.3758 35.85C98.3761 35.85 98.3764 35.85 98.3768 35.85C98.3771 35.85 98.3774 35.85 98.3777 35.85C98.3781 35.85 98.3784 35.85 98.3787 35.85C98.379 35.85 98.3794 35.85 98.3797 35.85C98.38 35.85 98.3803 35.85 98.3807 35.85C98.381 35.85 98.3813 35.85 98.3816 35.85C98.382 35.85 98.3823 35.85 98.3826 35.85C98.3829 35.85 98.3833 35.85 98.3836 35.85C98.3839 35.85 98.3842 35.85 98.3846 35.85C98.3849 35.85 98.3852 35.85 98.3855 35.85C98.3859 35.85 98.3862 35.85 98.3865 35.85C98.3868 35.85 98.3872 35.85 98.3875 35.85C98.3878 35.85 98.3882 35.85 98.3885 35.85C98.3888 35.85 98.3891 35.85 98.3895 35.85C98.3898 35.85 98.3901 35.85 98.3904 35.85C98.3908 35.85 98.3911 35.85 98.3914 35.85C98.3917 35.85 98.3921 35.85 98.3924 35.85C98.3927 35.85 98.393 35.85 98.3934 35.85C98.3937 35.85 98.394 35.85 98.3943 35.85C98.3947 35.85 98.395 35.85 98.3953 35.85C98.3956 35.85 98.396 35.85 98.3963 35.85C98.3966 35.85 98.3969 35.85 98.3973 35.85C98.3976 35.85 98.3979 35.85 98.3982 35.85C98.3986 35.85 98.3989 35.85 98.3992 35.85C98.3995 35.85 98.3999 35.85 98.4002 35.85C98.4005 35.85 98.4008 35.85 98.4012 35.85C98.4015 35.85 98.4018 35.85 98.4021 35.85C98.4025 35.85 98.4028 35.85 98.4031 35.85C98.4035 35.85 98.4038 35.85 98.4041 35.85C98.4044 35.85 98.4048 35.85 98.4051 35.85C98.4054 35.85 98.4057 35.85 98.4061 35.85C98.4064 35.85 98.4067 35.85 98.407 35.85C98.4074 35.85 98.4077 35.85 98.408 35.85C98.4083 35.85 98.4087 35.85 98.409 35.85C98.4093 35.85 98.4096 35.85 98.41 35.85C98.4103 35.85 98.4106 35.85 98.4109 35.85C98.4113 35.85 98.4116 35.85 98.4119 35.85C98.4122 35.85 98.4126 35.85 98.4129 35.85C98.4132 35.85 98.4135 35.85 98.4139 35.85C98.4142 35.85 98.4145 35.85 98.4148 35.85C98.4152 35.85 98.4155 35.85 98.4158 35.85C98.4161 35.85 98.4165 35.85 98.4168 35.85C98.4171 35.85 98.4174 35.85 98.4178 35.85C98.4181 35.85 98.4184 35.85 98.4188 35.85C98.4191 35.85 98.4194 35.85 98.4197 35.85C98.4201 35.85 98.4204 35.85 98.4207 35.85C98.421 35.85 98.4214 35.85 98.4217 35.85C98.422 35.85 98.4223 35.85 98.4227 35.85C98.423 35.85 98.4233 35.85 98.4236 35.85C98.424 35.85 98.4243 35.85 98.4246 35.85C98.4249 35.85 98.4253 35.85 98.4256 35.85C98.4259 35.85 98.4262 35.85 98.4266 35.85C98.4269 35.85 98.4272 35.85 98.4275 35.85C98.4279 35.85 98.4282 35.85 98.4285 35.85C98.4288 35.85 98.4292 35.85 98.4295 35.85C98.4298 35.85 98.4301 35.85 98.4305 35.85C98.4308 35.85 98.4311 35.85 98.4314 35.85C98.4318 35.85 98.4321 35.85 98.4324 35.85C98.4327 35.85 98.4331 35.85 98.4334 35.85C98.4337 35.85 98.4341 35.85 98.4344 35.85C98.4347 35.85 98.435 35.85 98.4354 35.85C98.4357 35.85 98.436 35.85 98.4363 35.85C98.4367 35.85 98.437 35.85 98.4373 35.85C98.4376 35.85 98.438 35.85 98.4383 35.85C98.4386 35.85 98.4389 35.85 98.4393 35.85C98.4396 35.85 98.4399 35.85 98.4402 35.85C98.4406 35.85 98.4409 35.85 98.4412 35.85C98.4415 35.85 98.4419 35.85 98.4422 35.85C98.4425 35.85 98.4428 35.85 98.4432 35.85C98.4435 35.85 98.4438 35.85 98.4441 35.85C98.4445 35.85 98.4448 35.85 98.4451 35.85C98.4454 35.85 98.4458 35.85 98.4461 35.85C98.4464 35.85 98.4467 35.85 98.4471 35.85C98.4474 35.85 98.4477 35.85 98.448 35.85C98.4484 35.85 98.4487 35.85 98.449 35.85C98.4494 35.85 98.4497 35.85 98.45 35.85C98.4503 35.85 98.4507 35.85 98.451 35.85C98.4513 35.85 98.4516 35.85 98.452 35.85C98.4523 35.85 98.4526 35.85 98.4529 35.85C98.4533 35.85 98.4536 35.85 98.4539 35.85C98.4542 35.85 98.4546 35.85 98.4549 35.85C98.4552 35.85 98.4555 35.85 98.4559 35.85C98.4562 35.85 98.4565 35.85 98.4568 35.85C98.4572 35.85 98.4575 35.85 98.4578 35.85C98.4581 35.85 98.4585 35.85 98.4588 35.85C98.4591 35.85 98.4594 35.85 98.4598 35.85C98.4601 35.85 98.4604 35.85 98.4607 35.85C98.4611 35.85 98.4614 35.85 98.4617 35.85C98.462 35.85 98.4624 35.85 98.4627 35.85C98.463 35.85 98.4633 35.85 98.4637 35.85C98.464 35.85 98.4643 35.85 98.4646 35.85C98.465 35.85 98.4653 35.85 98.4656 35.85C98.466 35.85 98.4663 35.85 98.4666 35.85C98.4669 35.85 98.4673 35.85 98.4676 35.85C98.4679 35.85 98.4682 35.85 98.4686 35.85C98.4689 35.85 98.4692 35.85 98.4695 35.85C98.4699 35.85 98.4702 35.85 98.4705 35.85C98.4708 35.85 98.4712 35.85 98.4715 35.85C98.4718 35.85 98.4721 35.85 98.4725 35.85C98.4728 35.85 98.4731 35.85 98.4734 35.85C98.4738 35.85 98.4741 35.85 98.4744 35.85C98.4747 35.85 98.4751 35.85 98.4754 35.85C98.4757 35.85 98.476 35.85 98.4764 35.85C98.4767 35.85 98.477 35.85 98.4773 35.85C98.4777 35.85 98.478 35.85 98.4783 35.85C98.4786 35.85 98.479 35.85 98.4793 35.85C98.4796 35.85 98.4799 35.85 98.4803 35.85C98.4806 35.85 98.4809 35.85 98.4813 35.85C98.4816 35.85 98.4819 35.85 98.4822 35.85C98.4826 35.85 98.4829 35.85 98.4832 35.85C98.4835 35.85 98.4839 35.85 98.4842 35.85C98.4845 35.85 98.4848 35.85 98.4852 35.85C98.4855 35.85 98.4858 35.85 98.4861 35.85C98.4865 35.85 98.4868 35.85 98.4871 35.85C98.4874 35.85 98.4878 35.85 98.4881 35.85C98.4884 35.85 98.4887 35.85 98.4891 35.85C98.4894 35.85 98.4897 35.85 98.49 35.85C98.4904 35.85 98.4907 35.85 98.491 35.85C98.4913 35.85 98.4917 35.85 98.492 35.85C98.4923 35.85 98.4926 35.85 98.493 35.85C98.4933 35.85 98.4936 35.85 98.4939 35.85C98.4943 35.85 98.4946 35.85 98.4949 35.85C98.4952 35.85 98.4956 35.85 98.4959 35.85C98.4962 35.85 98.4966 35.85 98.4969 35.85C98.4972 35.85 98.4975 35.85 98.4979 35.85C98.4982 35.85 98.4985 35.85 98.4988 35.85C98.4992 35.85 98.4995 35.85 98.4998 35.85C98.5001 35.85 98.5005 35.85 98.5008 35.85C98.5011 35.85 98.5014 35.85 98.5018 35.85C98.5021 35.85 98.5024 35.85 98.5027 35.85C98.5031 35.85 98.5034 35.85 98.5037 35.85C98.504 35.85 98.5044 35.85 98.5047 35.85C98.505 35.85 98.5053 35.85 98.5057 35.85C98.506 35.85 98.5063 35.85 98.5066 35.85C98.507 35.85 98.5073 35.85 98.5076 35.85C98.5079 35.85 98.5083 35.85 98.5086 35.85C98.5089 35.85 98.5092 35.85 98.5096 35.85C98.5099 35.85 98.5102 35.85 98.5105 35.85C98.5109 35.85 98.5112 35.85 98.5115 35.85C98.5119 35.85 98.5122 35.85 98.5125 35.85C98.5128 35.85 98.5132 35.85 98.5135 35.85C98.5138 35.85 98.5141 35.85 98.5145 35.85C98.5148 35.85 98.5151 35.85 98.5154 35.85C98.5158 35.85 98.5161 35.85 98.5164 35.85C98.5167 35.85 98.5171 35.85 98.5174 35.85C98.5177 35.85 98.518 35.85 98.5184 35.85C98.5187 35.85 98.519 35.85 98.5193 35.85C98.5197 35.85 98.52 35.85 98.5203 35.85C98.5206 35.85 98.521 35.85 98.5213 35.85C98.5216 35.85 98.5219 35.85 98.5223 35.85C98.5226 35.85 98.5229 35.85 98.5232 35.85C98.5236 35.85 98.5239 35.85 98.5242 35.85C98.5245 35.85 98.5249 35.85 98.5252 35.85C98.5255 35.85 98.5258 35.85 98.5262 35.85C98.5265 35.85 98.5268 35.85 98.5271 35.85C98.5275 35.85 98.5278 35.85 98.5281 35.85C98.5285 35.85 98.5288 35.85 98.5291 35.85C98.5294 35.85 98.5298 35.85 98.5301 35.85C98.5304 35.85 98.5307 35.85 98.5311 35.85C98.5314 35.85 98.5317 35.85 98.532 35.85C98.5324 35.85 98.5327 35.85 98.533 35.85C98.5333 35.85 98.5337 35.85 98.534 35.85C98.5343 35.85 98.5346 35.85 98.535 35.85C98.5353 35.85 98.5356 35.85 98.5359 35.85C98.5363 35.85 98.5366 35.85 98.5369 35.85C98.5372 35.85 98.5376 35.85 98.5379 35.85C98.5382 35.85 98.5385 35.85 98.5389 35.85C98.5392 35.85 98.5395 35.85 98.5398 35.85C98.5402 35.85 98.5405 35.85 98.5408 35.85C98.5411 35.85 98.5415 35.85 98.5418 35.85C98.5421 35.85 98.5424 35.85 98.5428 35.85C98.5431 35.85 98.5434 35.85 98.5438 35.85C98.5441 35.85 98.5444 35.85 98.5447 35.85C98.5451 35.85 98.5454 35.85 98.5457 35.85C98.546 35.85 98.5464 35.85 98.5467 35.85C98.547 35.85 98.5473 35.85 98.5477 35.85C98.548 35.85 98.5483 35.85 98.5486 35.85C98.549 35.85 98.5493 35.85 98.5496 35.85C98.5499 35.85 98.5503 35.85 98.5506 35.85C98.5509 35.85 98.5512 35.85 98.5516 35.85C98.5519 35.85 98.5522 35.85 98.5525 35.85C98.5529 35.85 98.5532 35.85 98.5535 35.85C98.5538 35.85 98.5542 35.85 98.5545 35.85C98.5548 35.85 98.5551 35.85 98.5555 35.85C98.5558 35.85 98.5561 35.85 98.5564 35.85C98.5568 35.85 98.5571 35.85 98.5574 35.85C98.5577 35.85 98.5581 35.85 98.5584 35.85C98.5587 35.85 98.5591 35.85 98.5594 35.85C98.5597 35.85 98.56 35.85 98.5604 35.85C98.5607 35.85 98.561 35.85 98.5613 35.85C98.5617 35.85 98.562 35.85 98.5623 35.85C98.5626 35.85 98.563 35.85 98.5633 35.85C98.5636 35.85 98.5639 35.85 98.5643 35.85C98.5646 35.85 98.5649 35.85 98.5652 35.85C98.5656 35.85 98.5659 35.85 98.5662 35.85C98.5665 35.85 98.5669 35.85 98.5672 35.85C98.5675 35.85 98.5678 35.85 98.5682 35.85C98.5685 35.85 98.5688 35.85 98.5691 35.85C98.5695 35.85 98.5698 35.85 98.5701 35.85C98.5704 35.85 98.5708 35.85 98.5711 35.85C98.5714 35.85 98.5717 35.85 98.5721 35.85C98.5724 35.85 98.5727 35.85 98.573 35.85C98.5734 35.85 98.5737 35.85 98.574 35.85C98.5744 35.85 98.5747 35.85 98.575 35.85C98.5753 35.85 98.5757 35.85 98.576 35.85C98.5763 35.85 98.5766 35.85 98.577 35.85C98.5773 35.85 98.5776 35.85 98.5779 35.85C98.5783 35.85 98.5786 35.85 98.5789 35.85C98.5792 35.85 98.5796 35.85 98.5799 35.85C98.5802 35.85 98.5805 35.85 98.5809 35.85C98.5812 35.85 98.5815 35.85 98.5818 35.85C98.5822 35.85 98.5825 35.85 98.5828 35.85C98.5831 35.85 98.5835 35.85 98.5838 35.85C98.5841 35.85 98.5844 35.85 98.5848 35.85C98.5851 35.85 98.5854 35.85 98.5857 35.85C98.5861 35.85 98.5864 35.85 98.5867 35.85C98.587 35.85 98.5874 35.85 98.5877 35.85C98.588 35.85 98.5883 35.85 98.5887 35.85C98.589 35.85 98.5893 35.85 98.5896 35.85C98.59 35.85 98.5903 35.85 98.5906 35.85C98.591 35.85 98.5913 35.85 98.5916 35.85C98.5919 35.85 98.5923 35.85 98.5926 35.85C98.5929 35.85 98.5932 35.85 98.5936 35.85C98.5939 35.85 98.5942 35.85 98.5945 35.85C98.5949 35.85 98.5952 35.85 98.5955 35.85C98.5958 35.85 98.5962 35.85 98.5965 35.85C98.5968 35.85 98.5971 35.85 98.5975 35.85C98.5978 35.85 98.5981 35.85 98.5984 35.85C98.5988 35.85 98.5991 35.85 98.5994 35.85C98.5997 35.85 98.6001 35.85 98.6004 35.85C98.6007 35.85 98.601 35.85 98.6014 35.85C98.6017 35.85 98.602 35.85 98.6023 35.85C98.6027 35.85 98.603 35.85 98.6033 35.85C98.6036 35.85 98.604 35.85 98.6043 35.85C98.6046 35.85 98.6049 35.85 98.6053 35.85C98.6056 35.85 98.6059 35.85 98.6063 35.85C98.6066 35.85 98.6069 35.85 98.6072 35.85C98.6076 35.85 98.6079 35.85 98.6082 35.85C98.6085 35.85 98.6089 35.85 98.6092 35.85C98.6095 35.85 98.6098 35.85 98.6102 35.85C98.6105 35.85 98.6108 35.85 98.6111 35.85C98.6115 35.85 98.6118 35.85 98.6121 35.85C98.6124 35.85 98.6128 35.85 98.6131 35.85C98.6134 35.85 98.6137 35.85 98.6141 35.85C98.6144 35.85 98.6147 35.85 98.615 35.85C98.6154 35.85 98.6157 35.85 98.616 35.85C98.6163 35.85 98.6167 35.85 98.617 35.85C98.6173 35.85 98.6176 35.85 98.618 35.85C98.6183 35.85 98.6186 35.85 98.6189 35.85C98.6193 35.85 98.6196 35.85 98.6199 35.85C98.6202 35.85 98.6206 35.85 98.6209 35.85C98.6212 35.85 98.6216 35.85 98.6219 35.85C98.6222 35.85 98.6225 35.85 98.6229 35.85C98.6232 35.85 98.6235 35.85 98.6238 35.85C98.6242 35.85 98.6245 35.85 98.6248 35.85C98.6251 35.85 98.6255 35.85 98.6258 35.85C98.6261 35.85 98.6264 35.85 98.6268 35.85C98.6271 35.85 98.6274 35.85 98.6277 35.85C98.6281 35.85 98.6284 35.85 98.6287 35.85C98.629 35.85 98.6294 35.85 98.6297 35.85V33.85ZM98.1297 33.85C95.3508 33.85 93.0393 34.6879 91.3149 36.4507L92.7445 37.8493C94.02 36.5454 95.7752 35.85 98.1297 35.85V33.85ZM91.3149 36.4507C89.5753 38.2289 88.7797 40.7329 88.7797 43.8H90.7797C90.7797 41.0671 91.4841 39.1378 92.7445 37.8493L91.3149 36.4507ZM88.7797 43.8V57H90.7797V43.8H88.7797ZM89.7797 56H84.9797V58H89.7797V56ZM111.702 55.55L111.222 56.4274L111.227 56.4305L111.702 55.55ZM106.702 50.75L105.834 51.2477L105.84 51.2583L106.702 50.75ZM106.652 36.75L105.784 36.2523L105.778 36.2631L106.652 36.75ZM111.402 32L111.895 32.87L111.899 32.8674L111.402 32ZM125.052 31.95L125.551 31.0836L125.551 31.0836L125.052 31.95ZM129.652 36.75L128.769 37.2198L128.773 37.2284L128.778 37.2369L129.652 36.75ZM131.302 44.6L130.309 44.476L130.302 44.5377V44.6H131.302ZM131.252 45.35V46.35H132.119L132.242 45.4914L131.252 45.35ZM108.702 45.35H107.702V46.35H108.702V45.35ZM108.702 41.9V40.9H107.702V41.9H108.702ZM128.752 41.9L129.276 42.7517L132.285 40.9H128.752V41.9ZM126.802 43.1L125.802 43.0804L125.766 44.9115L127.326 43.9517L126.802 43.1ZM125.752 38.55L126.628 38.0681L126.628 38.0681L125.752 38.55ZM122.702 35.45L122.184 36.3055L122.197 36.3134L122.21 36.321L122.702 35.45ZM113.802 35.45L114.293 36.321L114.301 36.3163L114.31 36.3114L113.802 35.45ZM110.752 38.6L111.628 39.0819L111.633 39.0728L110.752 38.6ZM110.852 48.75L109.983 49.2461L109.99 49.2585L109.998 49.2706L110.852 48.75ZM114.302 51.95L114.765 51.0638L114.765 51.0638L114.302 51.95ZM123.602 52.3L123.222 51.3748L123.214 51.3784L123.602 52.3ZM127.002 49.9L127.762 49.2502L127.023 48.3867L126.261 49.2285L127.002 49.9ZM129.652 53L130.411 53.6508L130.968 53.0009L130.412 52.3502L129.652 53ZM125.152 56.2L124.774 55.2739L124.768 55.2764L125.152 56.2ZM119.202 56.3C116.508 56.3 114.176 55.7466 112.176 54.6695L111.227 56.4305C113.561 57.6868 116.228 58.3 119.202 58.3V56.3ZM112.181 54.6726C110.201 53.5897 108.668 52.1151 107.563 50.2417L105.84 51.2583C107.135 53.4515 108.935 55.177 111.222 56.4274L112.181 54.6726ZM107.569 50.2523C106.499 48.3884 105.952 46.2307 105.952 43.75H103.952C103.952 46.536 104.57 49.0449 105.834 51.2477L107.569 50.2523ZM105.952 43.75C105.952 41.2644 106.485 39.1027 107.525 37.2369L105.778 36.2631C104.551 38.464 103.952 40.969 103.952 43.75H105.952ZM107.519 37.2477C108.598 35.3665 110.054 33.9132 111.895 32.87L110.909 31.13C108.749 32.3535 107.038 34.0668 105.784 36.2523L107.519 37.2477ZM111.899 32.8674C113.769 31.7946 115.878 31.25 118.252 31.25V29.25C115.558 29.25 113.101 29.8721 110.904 31.1326L111.899 32.8674ZM118.252 31.25C120.666 31.25 122.756 31.7816 124.552 32.8164L125.551 31.0836C123.413 29.8518 120.97 29.25 118.252 29.25V31.25ZM124.552 32.8164C126.351 33.8531 127.754 35.3132 128.769 37.2198L130.534 36.2801C129.349 34.0534 127.685 32.3136 125.551 31.0836L124.552 32.8164ZM128.778 37.2369C129.815 39.0973 130.352 41.3073 130.352 43.9H132.352C132.352 41.0261 131.755 38.4694 130.525 36.2631L128.778 37.2369ZM130.352 43.9C130.352 44.0472 130.339 44.2374 130.309 44.476L132.294 44.724C132.331 44.4292 132.352 44.1528 132.352 43.9H130.352ZM130.302 44.6C130.302 44.8254 130.287 45.0277 130.262 45.2086L132.242 45.4914C132.282 45.2056 132.302 44.9079 132.302 44.6H130.302ZM131.252 44.35H108.702V46.35H131.252V44.35ZM109.702 45.35V41.9H107.702V45.35H109.702ZM108.702 42.9H128.752V40.9H108.702V42.9ZM128.227 41.0483L126.277 42.2483L127.326 43.9517L129.276 42.7517L128.227 41.0483ZM127.801 43.1196C127.838 41.2655 127.455 39.5723 126.628 38.0681L124.875 39.0319C125.515 40.1944 125.832 41.5345 125.802 43.0804L127.801 43.1196ZM126.628 38.0681C125.807 36.5751 124.658 35.4056 123.193 34.579L122.21 36.321C123.345 36.9611 124.23 37.8582 124.875 39.0319L126.628 38.0681ZM123.219 34.5945C121.775 33.72 120.107 33.3 118.252 33.3V35.3C119.797 35.3 121.095 35.6467 122.184 36.3055L123.219 34.5945ZM118.252 33.3C116.425 33.3 114.763 33.7219 113.294 34.5886L114.31 36.3114C115.44 35.6447 116.744 35.3 118.252 35.3V33.3ZM113.31 34.579C111.839 35.4092 110.69 36.6004 109.87 38.1272L111.633 39.0728C112.28 37.8663 113.165 36.9574 114.293 36.321L113.31 34.579ZM109.875 38.1181C109.05 39.6185 108.652 41.3219 108.652 43.2H110.652C110.652 41.6114 110.986 40.2481 111.628 39.0819L109.875 38.1181ZM108.652 43.2V44H110.652V43.2H108.652ZM108.652 44C108.652 45.9236 109.089 47.6809 109.983 49.2461L111.72 48.2539C111.014 47.0191 110.652 45.6097 110.652 44H108.652ZM109.998 49.2706C110.929 50.7978 112.216 51.9884 113.838 52.8362L114.765 51.0638C113.453 50.3783 112.441 49.4356 111.705 48.2294L109.998 49.2706ZM113.838 52.8362C115.468 53.688 117.314 54.1 119.352 54.1V52.1C117.589 52.1 116.069 51.7453 114.765 51.0638L113.838 52.8362ZM119.352 54.1C121.033 54.1 122.584 53.8134 123.99 53.2216L123.214 51.3784C122.086 51.8532 120.803 52.1 119.352 52.1V54.1ZM123.981 53.2252C125.422 52.6339 126.678 51.7458 127.743 50.5715L126.261 49.2285C125.391 50.1875 124.381 50.8995 123.222 51.3748L123.981 53.2252ZM126.241 50.5498L128.891 53.6498L130.412 52.3502L127.762 49.2502L126.241 50.5498ZM128.892 52.3492C127.802 53.6218 126.435 54.5973 124.774 55.2739L125.529 57.1261C127.468 56.336 129.102 55.1782 130.411 53.6508L128.892 52.3492ZM124.768 55.2764C123.14 55.9523 121.29 56.3 119.202 56.3V58.3C121.514 58.3 123.63 57.9144 125.535 57.1236L124.768 55.2764ZM179.317 31.5L179.771 30.6092L179.771 30.6092L179.317 31.5ZM183.117 35.3L182.233 35.7679L182.237 35.7746L182.24 35.7813L183.117 35.3ZM184.517 57V58H185.517V57H184.517ZM179.717 57H178.717V58H179.717V57ZM168.667 35.55L168.181 34.6758L168.667 35.55ZM165.867 38.5L164.977 38.0437L164.972 38.0528L164.968 38.062L165.867 38.5ZM164.917 57V58H165.917V57H164.917ZM160.117 57H159.117V58H160.117V57ZM158.317 36.5L157.572 37.168L157.582 37.1783L158.317 36.5ZM149.117 35.55L148.631 34.6758L148.631 34.6758L149.117 35.55ZM146.317 38.5L147.207 38.9563L147.207 38.9563L146.317 38.5ZM145.317 57V58H146.317V57H145.317ZM140.517 57H139.517V58H140.517V57ZM140.517 30.5V29.5H139.517V30.5H140.517ZM145.117 30.5H146.117V29.5H145.117V30.5ZM145.117 37.55L144.194 37.9346L146.117 37.55H145.117ZM144.367 35.75L143.466 35.3167L143.271 35.7208L143.444 36.1346L144.367 35.75ZM148.217 31.7L147.73 30.8266L147.73 30.8266L148.217 31.7ZM160.817 32.15L160.248 32.9728L160.259 32.9797L160.817 32.15ZM164.417 37.8L164.037 38.7252L165.811 39.453L165.393 37.5817L164.417 37.8ZM162.467 37L161.536 36.6339L161.175 37.5511L162.087 37.9252L162.467 37ZM166.667 32.1L167.192 32.9512L166.667 32.1ZM173.667 31.25C175.668 31.25 177.391 31.6401 178.862 32.3908L179.771 30.6092C177.976 29.6932 175.932 29.25 173.667 29.25V31.25ZM178.862 32.3908C180.303 33.1259 181.424 34.2402 182.233 35.7679L184.001 34.8321C183.009 32.9598 181.597 31.5408 179.771 30.6092L178.862 32.3908ZM182.24 35.7813C183.07 37.292 183.517 39.2632 183.517 41.75H185.517C185.517 39.0368 185.031 36.708 183.993 34.8187L182.24 35.7813ZM183.517 41.75V57H185.517V41.75H183.517ZM184.517 56H179.717V58H184.517V56ZM180.717 57V42.3H178.717V57H180.717ZM180.717 42.3C180.717 39.5941 180.085 37.375 178.652 35.8217L177.182 37.1783C178.148 38.225 178.717 39.8726 178.717 42.3H180.717ZM178.652 35.8217C177.221 34.2718 175.245 33.55 172.867 33.55V35.55C174.822 35.55 176.213 36.1282 177.182 37.1783L178.652 35.8217ZM172.867 33.55C171.125 33.55 169.553 33.9139 168.181 34.6758L169.152 36.4242C170.181 35.8528 171.408 35.55 172.867 35.55V33.55ZM168.181 34.6758C166.797 35.445 165.728 36.5794 164.977 38.0437L166.757 38.9563C167.339 37.8206 168.137 36.9883 169.152 36.4242L168.181 34.6758ZM164.968 38.062C164.25 39.5364 163.917 41.3137 163.917 43.35H165.917C165.917 41.5197 166.217 40.0636 166.766 38.938L164.968 38.062ZM163.917 43.35V57H165.917V43.35H163.917ZM164.917 56H160.117V58H164.917V56ZM161.117 57V42.3H159.117V57H161.117ZM161.117 42.3C161.117 39.5941 160.485 37.375 159.052 35.8217L157.582 37.1783C158.548 38.225 159.117 39.8726 159.117 42.3H161.117ZM159.061 35.8321C157.658 34.2683 155.672 33.55 153.267 33.55V35.55C155.262 35.55 156.643 36.1317 157.573 37.1679L159.061 35.8321ZM153.267 33.55C151.555 33.55 150 33.9156 148.631 34.6758L149.602 36.4242C150.634 35.8511 151.846 35.55 153.267 35.55V33.55ZM148.631 34.6758C147.247 35.445 146.178 36.5794 145.427 38.0437L147.207 38.9563C147.789 37.8206 148.587 36.9883 149.602 36.4242L148.631 34.6758ZM145.427 38.0437C144.668 39.523 144.317 41.3072 144.317 43.35H146.317C146.317 41.5261 146.632 40.077 147.207 38.9563L145.427 38.0437ZM144.317 43.35V57H146.317V43.35H144.317ZM145.317 56H140.517V58H145.317V56ZM141.517 57V30.5H139.517V57H141.517ZM140.517 31.5H145.117V29.5H140.517V31.5ZM144.117 30.5V37.55H146.117V30.5H144.117ZM146.04 37.1654L145.29 35.3654L143.444 36.1346L144.194 37.9346L146.04 37.1654ZM145.268 36.1833C146.009 34.6421 147.145 33.443 148.704 32.5734L147.73 30.8266C145.822 31.8903 144.391 33.3912 143.466 35.3167L145.268 36.1833ZM148.704 32.5734C150.266 31.7021 152.11 31.25 154.267 31.25V29.25C151.824 29.25 149.634 29.7646 147.73 30.8266L148.704 32.5734ZM154.267 31.25C156.626 31.25 158.604 31.8368 160.248 32.9727L161.385 31.3273C159.363 29.9298 156.974 29.25 154.267 29.25V31.25ZM160.259 32.9797C161.843 34.0456 162.92 35.688 163.441 38.0183L165.393 37.5817C164.781 34.8453 163.457 32.7211 161.375 31.3203L160.259 32.9797ZM164.796 36.8748L162.846 36.0748L162.087 37.9252L164.037 38.7252L164.796 36.8748ZM163.397 37.3661C164.112 35.5496 165.361 34.08 167.192 32.9512L166.142 31.2488C163.973 32.5866 162.422 34.3837 161.536 36.6339L163.397 37.3661ZM167.192 32.9512C169.013 31.8278 171.16 31.25 173.667 31.25V29.25C170.84 29.25 168.32 29.9056 166.142 31.2488L167.192 32.9512ZM212.299 57H211.299V58H212.299V57ZM212.299 51.4H213.299V51.2826L213.272 51.1684L212.299 51.4ZM212.049 50.35H211.049V50.4674L211.076 50.5816L212.049 50.35ZM210.249 36.1L209.552 36.8173L209.562 36.8274L209.573 36.8372L210.249 36.1ZM200.349 35.2L200.665 36.1487L200.674 36.1455L200.684 36.1422L200.349 35.2ZM196.549 37.25L195.675 37.7356L196.263 38.7948L197.191 38.0162L196.549 37.25ZM194.549 33.65L193.922 32.871L193.266 33.3992L193.675 34.1356L194.549 33.65ZM199.449 31.15L199.735 32.1083L199.745 32.1051L199.449 31.15ZM216.849 57V58H217.849V57H216.849ZM198.399 56.3L197.985 57.2104L197.993 57.2138L198.399 56.3ZM194.999 53.55L194.167 54.1047L194.174 54.1155L194.999 53.55ZM194.799 45.6L193.941 45.0855L193.936 45.0946L193.931 45.1039L194.799 45.6ZM198.149 42.8L197.741 41.887L197.734 41.8903L198.149 42.8ZM212.849 41.75H213.849V40.75H212.849V41.75ZM212.849 45.2V46.2H213.849V45.2H212.849ZM199.799 46.4L199.106 45.6786L199.106 45.6786L199.799 46.4ZM200.099 52.45L199.487 53.2407L199.495 53.247L199.503 53.2531L200.099 52.45ZM209.099 52.4L208.594 51.5369L208.584 51.5425L209.099 52.4ZM212.049 48.9L213.01 48.6234L212.193 45.7868L211.118 48.5356L212.049 48.9ZM212.999 52.2L213.926 52.5748L214.055 52.2549L213.96 51.9234L212.999 52.2ZM209.649 55.95L210.139 56.8216L210.146 56.8177L210.153 56.8138L209.649 55.95ZM213.299 57V51.4H211.299V57H213.299ZM213.272 51.1684L213.022 50.1184L211.076 50.5816L211.326 51.6316L213.272 51.1684ZM213.049 50.35V40.8H211.049V50.35H213.049ZM213.049 40.8C213.049 38.5612 212.381 36.6975 210.925 35.3628L209.573 36.8372C210.517 37.7025 211.049 38.9722 211.049 40.8H213.049ZM210.946 35.3827C209.522 33.9999 207.458 33.4 204.949 33.4V35.4C207.173 35.4 208.642 35.9335 209.552 36.8173L210.946 35.3827ZM204.949 33.4C203.266 33.4 201.62 33.6868 200.014 34.2578L200.684 36.1422C202.078 35.6465 203.498 35.4 204.949 35.4V33.4ZM200.033 34.2513C198.434 34.7843 197.051 35.5237 195.906 36.4838L197.191 38.0162C198.113 37.243 199.264 36.6157 200.665 36.1487L200.033 34.2513ZM197.423 36.7644L195.423 33.1644L193.675 34.1356L195.675 37.7356L197.423 36.7644ZM195.176 34.429C196.429 33.4202 197.943 32.6427 199.735 32.1083L199.163 30.1917C197.155 30.7906 195.402 31.6798 193.922 32.871L195.176 34.429ZM199.745 32.1051C201.579 31.536 203.496 31.25 205.499 31.25V29.25C203.302 29.25 201.185 29.564 199.152 30.1949L199.745 32.1051ZM205.499 31.25C208.978 31.25 211.506 32.0951 213.231 33.6439L214.567 32.1561C212.358 30.1715 209.286 29.25 205.499 29.25V31.25ZM213.231 33.6439C214.916 35.1579 215.849 37.54 215.849 41H217.849C217.849 37.1933 216.815 34.1754 214.567 32.1561L213.231 33.6439ZM215.849 41V57H217.849V41H215.849ZM216.849 56H212.299V58H216.849V56ZM203.599 56.3C201.745 56.3 200.154 55.9859 198.805 55.3862L197.993 57.2138C199.643 57.9474 201.519 58.3 203.599 58.3V56.3ZM198.813 55.3896C197.488 54.7877 196.507 53.9809 195.824 52.9845L194.174 54.1155C195.091 55.4524 196.376 56.479 197.985 57.2104L198.813 55.3896ZM195.831 52.9953C195.145 51.9664 194.799 50.8109 194.799 49.5H192.799C192.799 51.1891 193.253 52.7336 194.167 54.1047L195.831 52.9953ZM194.799 49.5C194.799 48.2287 195.093 47.1016 195.667 46.0961L193.931 45.1039C193.172 46.4317 192.799 47.9047 192.799 49.5H194.799ZM195.656 46.1145C196.23 45.1588 197.17 44.3459 198.564 43.7097L197.734 41.8903C196.061 42.6541 194.768 43.7079 193.941 45.0855L195.656 46.1145ZM198.557 43.713C199.945 43.0927 201.888 42.75 204.449 42.75V40.75C201.743 40.75 199.486 41.1073 197.741 41.887L198.557 43.713ZM204.449 42.75H212.849V40.75H204.449V42.75ZM211.849 41.75V45.2H213.849V41.75H211.849ZM212.849 44.2H204.649V46.2H212.849V44.2ZM204.649 44.2C203.4 44.2 202.309 44.3034 201.396 44.5293C200.488 44.7539 199.693 45.1153 199.106 45.6786L200.491 47.1214C200.738 46.8847 201.168 46.6461 201.877 46.4707C202.58 46.2966 203.498 46.2 204.649 46.2V44.2ZM199.106 45.6786C198.081 46.6631 197.549 47.8885 197.549 49.3H199.549C199.549 48.4448 199.85 47.7369 200.491 47.1214L199.106 45.6786ZM197.549 49.3C197.549 50.9113 198.21 52.2525 199.487 53.2407L200.711 51.6593C199.921 51.0475 199.549 50.2887 199.549 49.3H197.549ZM199.503 53.2531C200.768 54.1918 202.439 54.6 204.399 54.6V52.6C202.692 52.6 201.496 52.2416 200.695 51.6469L199.503 53.2531ZM204.399 54.6C206.351 54.6 208.101 54.1646 209.613 53.2575L208.584 51.5425C207.43 52.2354 206.047 52.6 204.399 52.6V54.6ZM209.604 53.263C211.173 52.3447 212.302 50.9981 212.98 49.2644L211.118 48.5356C210.596 49.8685 209.758 50.8553 208.594 51.537L209.604 53.263ZM211.088 49.1766L212.038 52.4766L213.96 51.9234L213.01 48.6234L211.088 49.1766ZM212.072 51.8252C211.529 53.1665 210.573 54.2531 209.145 55.0862L210.153 56.8138C211.925 55.7802 213.201 54.3668 213.926 52.5748L212.072 51.8252ZM209.159 55.0784C207.749 55.8712 205.914 56.3 203.599 56.3V58.3C206.15 58.3 208.348 57.8288 210.139 56.8216L209.159 55.0784ZM248.082 31.5L247.627 32.3908L247.634 32.3944L248.082 31.5ZM253.382 57V58H254.382V57H253.382ZM248.582 57H247.582V58H248.582V57ZM246.682 36.5L245.956 37.1883L245.965 37.1979L246.682 36.5ZM236.982 35.55L236.516 34.6651L236.516 34.6651L236.982 35.55ZM234.032 38.5L233.151 38.0259L233.146 38.0347L233.142 38.0437L234.032 38.5ZM233.032 57V58H234.032V57H233.032ZM228.232 57H227.232V58H228.232V57ZM228.232 30.5V29.5H227.232V30.5H228.232ZM232.832 30.5H233.832V29.5H232.832V30.5ZM232.832 37.65L231.901 38.0172L233.832 37.65H232.832ZM232.082 35.75L231.187 35.3028L230.988 35.702L231.151 36.1172L232.082 35.75ZM236.082 31.7L235.609 30.819L235.609 30.819L236.082 31.7ZM242.382 31.25C244.419 31.25 246.158 31.6412 247.627 32.3908L248.536 30.6092C246.739 29.6922 244.678 29.25 242.382 29.25V31.25ZM247.634 32.3944C249.112 33.133 250.265 34.2517 251.105 35.7813L252.858 34.8187C251.831 32.9483 250.385 31.5337 248.529 30.6056L247.634 32.3944ZM251.105 35.7813C251.935 37.292 252.382 39.2632 252.382 41.75H254.382C254.382 39.0368 253.895 36.708 252.858 34.8187L251.105 35.7813ZM252.382 41.75V57H254.382V41.75H252.382ZM253.382 56H248.582V58H253.382V56ZM249.582 57V42.3H247.582V57H249.582ZM249.582 42.3C249.582 39.5813 248.91 37.3545 247.398 35.8021L245.965 37.1979C246.986 38.2455 247.582 39.8853 247.582 42.3H249.582ZM247.407 35.8117C245.938 34.263 243.896 33.55 241.432 33.55V35.55C243.501 35.55 244.959 36.137 245.956 37.1883L247.407 35.8117ZM241.432 33.55C239.6 33.55 237.951 33.9099 236.516 34.6651L237.447 36.4349C238.546 35.8568 239.864 35.55 241.432 35.55V33.55ZM236.516 34.6651C235.067 35.4274 233.942 36.5566 233.151 38.0259L234.912 38.9741C235.521 37.8434 236.363 37.0059 237.447 36.4349L236.516 34.6651ZM233.142 38.0437C232.383 39.523 232.032 41.3072 232.032 43.35H234.032C234.032 41.5261 234.347 40.077 234.921 38.9563L233.142 38.0437ZM232.032 43.35V57H234.032V43.35H232.032ZM233.032 56H228.232V58H233.032V56ZM229.232 57V30.5H227.232V57H229.232ZM228.232 31.5H232.832V29.5H228.232V31.5ZM231.832 30.5V37.65H233.832V30.5H231.832ZM233.762 37.2828L233.012 35.3828L231.151 36.1172L231.901 38.0172L233.762 37.2828ZM232.976 36.1972C233.745 34.6588 234.926 33.4556 236.555 32.581L235.609 30.819C233.637 31.8777 232.151 33.3745 231.187 35.3028L232.976 36.1972ZM236.555 32.581C238.186 31.7051 240.118 31.25 242.382 31.25V29.25C239.845 29.25 237.577 29.7616 235.609 30.819L236.555 32.581Z" fill="#0000E4"/>
</svg>
