<svg width="72" height="72" viewBox="0 0 72 72" fill="none" xmlns="http://www.w3.org/2000/svg">
<path d="M18 45V58.5H63V27H54V22.5H64.6155C65.619 22.5 65.9835 22.6035 66.348 22.8015C66.7121 22.9925 67.0101 23.2889 67.203 23.652C67.3965 24.0165 67.5 24.381 67.5 25.3845V60.1155C67.5 61.119 67.3965 61.4835 67.1985 61.848C67.0075 62.2121 66.7111 62.5101 66.348 62.703C65.9835 62.8965 65.619 63 64.6155 63H16.3845C15.381 63 15.0165 62.8965 14.652 62.6985C14.2879 62.5075 13.9899 62.2111 13.797 61.848C13.608 61.4835 13.5 61.119 13.5 60.12V45H18Z" fill="#0964D8"/>
<path d="M54 13.5H9V45H54V13.5ZM58.5 11.8845V46.6155C58.5 47.619 58.3965 47.9835 58.1985 48.348C58.0075 48.7121 57.7111 49.0101 57.348 49.203C56.9835 49.3965 56.619 49.5 55.6155 49.5H7.3845C6.381 49.5 6.0165 49.3965 5.652 49.1985C5.28791 49.0075 4.98993 48.7111 4.797 48.348C4.608 47.9835 4.5 47.619 4.5 46.62V11.8845C4.5 10.881 4.6035 10.5165 4.8015 10.152C4.99251 9.78791 5.28893 9.48993 5.652 9.297C6.0165 9.108 6.381 9 7.38 9H55.611C56.6145 9 56.979 9.1035 57.3435 9.3015C57.7076 9.49251 58.0056 9.78893 58.1985 10.152C58.392 10.5165 58.4955 10.881 58.4955 11.8845H58.5Z" fill="#0964D8"/>
<path d="M31.5 40.5C28.5163 40.5 25.6548 39.3147 23.545 37.205C21.4353 35.0952 20.25 32.2337 20.25 29.25C20.25 26.2663 21.4353 23.4048 23.545 21.295C25.6548 19.1853 28.5163 18 31.5 18C34.4837 18 37.3452 19.1853 39.455 21.295C41.5647 23.4048 42.75 26.2663 42.75 29.25C42.75 32.2337 41.5647 35.0952 39.455 37.205C37.3452 39.3147 34.4837 40.5 31.5 40.5ZM31.5 36C33.2902 36 35.0071 35.2888 36.273 34.023C37.5388 32.7571 38.25 31.0402 38.25 29.25C38.25 27.4598 37.5388 25.7429 36.273 24.477C35.0071 23.2112 33.2902 22.5 31.5 22.5C29.7098 22.5 27.9929 23.2112 26.727 24.477C25.4612 25.7429 24.75 27.4598 24.75 29.25C24.75 31.0402 25.4612 32.7571 26.727 34.023C27.9929 35.2888 29.7098 36 31.5 36Z" fill="#0964D8"/>
</svg>
